<svg xmlns="http://www.w3.org/2000/svg" xmlns:xlink="http://www.w3.org/1999/xlink" width="400" zoomAndPan="magnify" viewBox="0 0 300 112.499997" height="150" preserveAspectRatio="xMidYMid meet" version="1.0"><defs><g/></defs><g fill="#479c9c" fill-opacity="1"><g transform="translate(25.652343, 71.262372)"><g><path d="M 1.496094 0.519531 C 2.167969 0.628906 2.828125 0.683594 3.570312 0.566406 C 5 0.335938 6.582031 -0.300781 8.351562 -1.457031 C 10.960938 -3.128906 14.195312 -5.988281 18.058594 -9.980469 C 19.222656 -11.199219 20.425781 -12.480469 21.617188 -13.871094 C 22.820312 -15.152344 23.878906 -16.355469 24.695312 -17.355469 C 25.101562 -17.855469 25.457031 -18.347656 25.769531 -18.777344 C 26.035156 -19.148438 26.160156 -19.386719 26.238281 -19.5625 C 26.355469 -19.851562 26.417969 -20.132812 26.4375 -20.355469 C 26.4375 -20.355469 26.480469 -20.414062 26.464844 -20.519531 C 26.441406 -20.679688 26.300781 -20.875 26.160156 -21.070312 C 25.703125 -21.539062 25.253906 -21.628906 24.792969 -21.445312 C 24.289062 -21.203125 23.632812 -20.554688 22.765625 -19.542969 C 21.132812 -17.539062 19.289062 -15.503906 17.292969 -13.386719 C 15.296875 -11.273438 13.425781 -9.394531 11.679688 -7.753906 C 10.6875 -6.832031 9.777344 -6.089844 8.910156 -5.40625 C 8.050781 -4.667969 7.324219 -4.117188 6.675781 -3.742188 C 5.597656 -3.023438 4.582031 -2.585938 3.523438 -2.417969 C 2.480469 -2.140625 1.765625 -2.1875 1.328125 -2.550781 C 0.351562 -3.207031 -0.03125 -4.558594 0.121094 -6.648438 C 0.238281 -8.625 0.839844 -10.949219 1.992188 -13.582031 C 2.855469 -15.621094 4.128906 -17.839844 5.753906 -20.21875 C 7.390625 -22.550781 9.519531 -25.175781 12.074219 -28.195312 C 13.460938 -29.722656 14.265625 -30.777344 14.550781 -31.367188 C 14.792969 -31.894531 14.8125 -32.441406 14.515625 -32.9375 C 14.164062 -33.425781 13.707031 -33.566406 13.195312 -33.375 C 12.628906 -33.175781 11.558594 -32.40625 9.964844 -31.171875 C 8.140625 -29.679688 6.679688 -28.628906 5.59375 -27.964844 C 4.449219 -27.292969 3.488281 -26.863281 2.746094 -26.746094 C 2.214844 -26.660156 1.898438 -26.609375 1.777344 -26.695312 C 1.617188 -26.671875 1.476562 -26.867188 1.425781 -27.183594 C 1.285156 -27.703125 1.441406 -28.433594 1.878906 -29.429688 C 2.316406 -30.425781 3.042969 -31.628906 4.019531 -32.980469 C 5.53125 -35.074219 7.128906 -36.960938 8.925781 -38.609375 C 10.621094 -40.242188 11.9375 -41.160156 12.839844 -41.308594 C 13.101562 -41.351562 13.324219 -41.332031 13.5 -41.25 C 13.675781 -41.171875 13.878906 -40.929688 14.140625 -40.648438 C 14.402344 -40.363281 14.597656 -40.179688 14.773438 -40.097656 C 14.949219 -40.015625 15.222656 -40.007812 15.539062 -40.058594 C 15.964844 -40.125 16.316406 -40.292969 16.496094 -40.539062 C 16.679688 -40.730469 16.734375 -41.066406 16.667969 -41.492188 C 16.597656 -41.914062 16.363281 -42.363281 16.074219 -42.808594 C 15.742188 -43.1875 15.308594 -43.5 14.816406 -43.855469 C 14.40625 -44.058594 14.0625 -44.167969 13.832031 -44.238281 C 13.671875 -44.214844 13.453125 -44.230469 13.1875 -44.1875 C 12.976562 -44.15625 12.71875 -44.058594 12.457031 -44.015625 C 11.148438 -43.695312 9.742188 -42.980469 8.253906 -41.761719 C 6.714844 -40.535156 4.984375 -38.789062 3.121094 -36.53125 C 0.582031 -33.40625 -0.929688 -30.660156 -1.3125 -28.316406 C -1.746094 -25.964844 -1.015625 -24.453125 0.921875 -23.894531 C 1.382812 -23.753906 1.777344 -23.652344 2.09375 -23.703125 C 2.421875 -23.703125 2.953125 -23.789062 3.632812 -23.953125 L 5.195312 -24.367188 C 4.402344 -23.207031 3.78125 -22.347656 3.433594 -21.800781 C 0.148438 -16.921875 -1.859375 -12.523438 -2.515625 -8.503906 C -2.789062 -6.832031 -2.832031 -5.410156 -2.640625 -4.246094 C -2.351562 -2.445312 -1.582031 -1.046875 -0.246094 -0.175781 C 0 0 0.289062 0.117188 0.632812 0.222656 C 0.933594 0.394531 1.222656 0.507812 1.496094 0.519531 Z M 1.496094 0.519531 "/></g></g></g><g fill="#479c9c" fill-opacity="1"><g transform="translate(52.182565, 66.978678)"><g><path d="M 8.550781 -23.441406 C 8.382812 -23.46875 8.269531 -23.507812 8.152344 -23.542969 C 7.996094 -23.515625 7.828125 -23.542969 7.722656 -23.527344 C 7.507812 -23.492188 7.359375 -23.414062 7.164062 -23.273438 C 6.96875 -23.132812 6.722656 -22.984375 6.542969 -22.738281 C 6.277344 -22.371094 6.03125 -22.222656 5.925781 -22.203125 C 5.773438 -22.125 5.449219 -22.125 4.9375 -22.261719 C 3.828125 -22.410156 2.714844 -22.230469 1.722656 -21.632812 C 0.625 -21.023438 -0.355469 -20.046875 -1.335938 -18.695312 C -2.042969 -17.710938 -2.542969 -16.761719 -2.917969 -15.722656 C -3.347656 -14.675781 -3.519531 -13.722656 -3.453125 -12.972656 C -3.453125 -12.648438 -3.421875 -12.433594 -3.394531 -12.277344 C -3.359375 -12.0625 -3.34375 -11.957031 -3.273438 -11.859375 C -3.1875 -11.65625 -2.921875 -11.375 -2.441406 -11.070312 C -2.183594 -10.839844 -1.886719 -10.671875 -1.605469 -10.609375 C -1.367188 -10.484375 -1.144531 -10.464844 -0.933594 -10.5 C -0.300781 -10.601562 0.503906 -11.003906 1.417969 -11.75 C 2.339844 -12.441406 3.324219 -13.414062 4.371094 -14.671875 C 4.636719 -15.039062 4.910156 -15.355469 5.195312 -15.621094 C 5.425781 -15.875 5.566406 -16.003906 5.621094 -16.015625 C 5.628906 -15.960938 5.609375 -15.742188 5.609375 -15.414062 C 5.5625 -15.027344 5.523438 -14.585938 5.488281 -14.144531 C 5.355469 -12.929688 5.386719 -11.738281 5.46875 -10.554688 C 5.558594 -9.320312 5.75 -8.480469 6.046875 -7.984375 C 6.132812 -7.78125 6.28125 -7.535156 6.535156 -7.304688 C 6.738281 -7.066406 6.933594 -6.878906 7.109375 -6.800781 C 7.582031 -6.550781 8.03125 -6.460938 8.5625 -6.542969 C 8.878906 -6.597656 9.285156 -6.769531 9.675781 -7.050781 C 10.558594 -7.628906 11.578125 -8.714844 12.621094 -10.351562 C 12.886719 -10.722656 13.179688 -11.257812 13.554688 -11.96875 C 13.890625 -12.566406 14.265625 -13.28125 14.683594 -14.054688 C 15.273438 -15.128906 15.761719 -16.128906 16.253906 -17.132812 C 16.699219 -18.074219 16.929688 -18.65625 16.949219 -18.875 C 16.933594 -18.980469 16.96875 -19.097656 16.953125 -19.203125 C 16.917969 -19.414062 16.769531 -19.660156 16.574219 -19.847656 C 16.207031 -20.113281 15.863281 -20.222656 15.429688 -20.207031 C 15.007812 -20.136719 14.699219 -20.035156 14.554688 -19.902344 C 14.371094 -19.710938 14.121094 -19.234375 13.710938 -18.40625 C 12.089844 -14.992188 10.789062 -12.609375 9.863281 -11.265625 C 8.894531 -9.859375 8.402344 -9.5625 8.273438 -10.355469 C 8.1875 -10.886719 8.183594 -11.917969 8.3125 -13.460938 C 8.460938 -14.898438 8.683594 -16.5625 9.027344 -18.464844 C 9.347656 -20.527344 9.46875 -21.796875 9.433594 -22.335938 C 9.402344 -22.875 9.132812 -23.210938 8.550781 -23.441406 Z M 3.554688 -19.375 C 3.609375 -19.382812 3.652344 -19.445312 3.707031 -19.453125 L 3.863281 -19.480469 C 4.183594 -19.53125 4.207031 -19.371094 4.046875 -19.019531 C 3.84375 -18.605469 3.355469 -17.929688 2.625 -17.050781 C 1.625 -15.859375 0.886719 -15.03125 0.417969 -14.578125 C -0.0976562 -14.058594 -0.351562 -13.964844 -0.386719 -14.175781 C -0.421875 -14.386719 -0.375 -14.773438 -0.125 -15.25 C 0.125 -15.722656 0.460938 -16.324219 0.996094 -17.0625 C 1.4375 -17.675781 1.847656 -18.175781 2.21875 -18.5625 C 2.609375 -18.84375 3.050781 -19.132812 3.554688 -19.375 Z M 3.554688 -19.375 "/></g></g></g><g fill="#479c9c" fill-opacity="1"><g transform="translate(69.180972, 64.234036)"><g><path d="M 4.585938 -24.433594 C 4.394531 -24.621094 4.199219 -24.804688 4.078125 -24.894531 C 3.902344 -24.972656 3.726562 -25.054688 3.558594 -25.082031 L 3.503906 -25.074219 C 3.238281 -25.03125 2.992188 -24.882812 2.753906 -24.679688 C 2.417969 -24.410156 2.042969 -24.023438 1.628906 -23.574219 C 0.148438 -21.976562 -0.972656 -20.492188 -1.621094 -19.136719 C -2.316406 -17.722656 -2.660156 -16.46875 -2.578125 -15.289062 C -2.546875 -14.425781 -2.375 -13.691406 -1.988281 -12.992188 C -1.65625 -12.285156 -1.105469 -11.558594 -0.28125 -10.824219 C -0.015625 -10.539062 0.246094 -10.253906 0.492188 -10.078125 C 0.703125 -9.785156 0.78125 -9.636719 0.78125 -9.636719 C 0.789062 -9.582031 0.699219 -9.460938 0.574219 -9.222656 C 0.40625 -8.921875 0.238281 -8.625 0.0703125 -8.324219 C -0.972656 -6.691406 -1.550781 -5.238281 -1.628906 -4.03125 C -1.675781 -3.640625 -1.675781 -3.316406 -1.632812 -3.050781 C -1.503906 -2.257812 -1.136719 -1.664062 -0.46875 -1.226562 C -0.101562 -0.960938 0.410156 -0.828125 1.117188 -0.832031 C 1.335938 -0.8125 1.546875 -0.847656 1.757812 -0.882812 C 2.183594 -0.949219 2.546875 -1.0625 2.945312 -1.289062 C 3.4375 -1.585938 3.960938 -2.050781 4.566406 -2.691406 C 5.121094 -3.273438 5.515625 -3.878906 5.800781 -4.46875 C 6.085938 -5.058594 6.238281 -5.789062 6.191406 -6.757812 C 6.152344 -7.675781 6.03125 -8.417969 5.714844 -9.019531 C 5.429688 -9.460938 5.269531 -9.761719 5.289062 -9.984375 C 5.261719 -10.140625 5.34375 -10.316406 5.53125 -10.511719 C 7 -11.835938 8.339844 -12.976562 9.480469 -13.976562 C 10.625 -14.972656 11.632812 -15.789062 12.457031 -16.410156 C 12.996094 -16.769531 13.476562 -17.171875 13.898438 -17.570312 C 14.273438 -17.953125 14.503906 -18.210938 14.582031 -18.386719 C 14.621094 -18.5 14.648438 -18.667969 14.621094 -18.824219 C 14.585938 -19.039062 14.445312 -19.234375 14.296875 -19.480469 C 13.980469 -19.753906 13.628906 -19.914062 13.1875 -19.953125 C 12.710938 -19.875 11.863281 -19.414062 10.640625 -18.5625 C 9.375 -17.652344 7.933594 -16.496094 6.320312 -15.039062 C 4.511719 -13.445312 3.511719 -12.578125 3.265625 -12.425781 C 3.023438 -12.226562 2.761719 -12.183594 2.410156 -12.34375 C 2.242188 -12.371094 2.054688 -12.503906 1.792969 -12.789062 C 1.546875 -12.964844 1.292969 -13.195312 1.082031 -13.488281 C 0.335938 -14.402344 0.113281 -15.449219 0.410156 -16.640625 C 0.664062 -17.769531 1.527344 -19.15625 2.945312 -20.800781 C 3.992188 -22.054688 4.621094 -22.863281 4.828125 -23.277344 C 4.988281 -23.628906 4.867188 -24.042969 4.585938 -24.433594 Z M 1.28125 -4.175781 C 1.238281 -4.4375 1.515625 -5.082031 2.015625 -6.03125 C 2.511719 -6.980469 2.816406 -7.464844 3.027344 -7.5 C 3.355469 -7.496094 3.46875 -7.136719 3.359375 -6.464844 C 3.257812 -5.742188 3.023438 -5.160156 2.609375 -4.714844 C 2.476562 -4.53125 2.339844 -4.34375 2.148438 -4.203125 C 1.960938 -4.011719 1.820312 -3.878906 1.714844 -3.863281 C 1.519531 -3.722656 1.414062 -3.707031 1.402344 -3.757812 C 1.34375 -3.804688 1.316406 -3.960938 1.28125 -4.175781 Z M 1.28125 -4.175781 "/></g></g></g><g fill="#479c9c" fill-opacity="1"><g transform="translate(84.378923, 61.780104)"><g><path d="M 3.71875 -22.390625 L 3.28125 -22.429688 L 2.855469 -22.359375 L 2.804688 -22.351562 C 1.328125 -22.058594 -0.105469 -20.851562 -1.386719 -18.6875 C -2.722656 -16.515625 -3.4375 -14.226562 -3.53125 -11.765625 C -3.535156 -11.113281 -3.484375 -10.46875 -3.398438 -9.9375 C -3.234375 -8.933594 -2.929688 -8.058594 -2.386719 -7.386719 C -1.609375 -6.261719 -0.527344 -5.621094 0.902344 -5.523438 C 1.289062 -5.480469 1.667969 -5.484375 2.09375 -5.554688 C 3.46875 -5.777344 5.078125 -6.578125 6.917969 -7.964844 C 9.246094 -9.699219 11.5625 -12.191406 13.871094 -15.390625 C 14.722656 -16.507812 15.25 -17.296875 15.507812 -17.71875 C 15.71875 -18.078125 15.820312 -18.476562 15.765625 -18.792969 C 15.699219 -19.21875 15.480469 -19.5625 15.109375 -19.828125 C 14.699219 -20.035156 14.308594 -20.078125 14.007812 -19.921875 C 13.910156 -19.851562 13.636719 -19.535156 13.175781 -19.027344 C 12.722656 -18.464844 12.226562 -17.839844 11.691406 -17.101562 C 9.8125 -14.625 8.0625 -12.660156 6.441406 -11.257812 C 4.828125 -9.800781 3.386719 -8.96875 2.132812 -8.660156 C 1.613281 -8.519531 1.1875 -8.453125 0.90625 -8.515625 C 0.589844 -8.464844 0.300781 -8.578125 0.160156 -8.773438 C -0.0859375 -8.953125 -0.296875 -9.246094 -0.472656 -9.652344 C -0.628906 -9.953125 -0.695312 -10.375 -0.613281 -10.878906 C 0.269531 -11.457031 0.898438 -11.9375 1.332031 -12.277344 C 2.996094 -13.417969 4.203125 -14.699219 4.957031 -16.070312 C 5.722656 -17.390625 6.054688 -18.691406 5.84375 -20.015625 C 5.730469 -20.707031 5.480469 -21.261719 5.144531 -21.644531 C 4.757812 -22.015625 4.285156 -22.265625 3.71875 -22.390625 Z M 0.390625 -16.09375 C 0.640625 -16.570312 1.023438 -17.226562 1.644531 -18.089844 C 2.273438 -18.898438 2.636719 -19.335938 2.851562 -19.371094 C 3.328125 -19.449219 3.253906 -18.890625 2.675781 -17.765625 C 2.105469 -16.585938 1.421875 -15.769531 0.738281 -15.28125 C 0.304688 -14.9375 0.046875 -14.84375 0.03125 -14.949219 C 0.015625 -15.054688 0.121094 -15.398438 0.390625 -16.09375 Z M 0.390625 -16.09375 "/></g></g></g><g fill="#479c9c" fill-opacity="1"><g transform="translate(100.635966, 59.155166)"><g><path d="M 10.179688 -36.910156 C 9.972656 -38.183594 9.554688 -39.09375 8.976562 -39.652344 C 8.34375 -40.199219 7.605469 -40.40625 6.703125 -40.261719 C 5.960938 -40.140625 5.140625 -39.519531 4.234375 -38.394531 C 3.328125 -37.273438 2.472656 -35.828125 1.726562 -34.078125 C 1.277344 -33.136719 0.769531 -31.914062 0.269531 -30.3125 C -0.234375 -28.707031 -0.734375 -27.105469 -1.183594 -25.511719 C -1.417969 -24.605469 -1.617188 -23.8125 -1.824219 -23.070312 C -2.019531 -22.28125 -2.128906 -21.609375 -2.257812 -21.046875 C -3.074219 -16.675781 -3.179688 -12.964844 -2.667969 -9.785156 C -2.207031 -6.597656 -1.191406 -4.699219 0.445312 -3.984375 C 1.042969 -3.644531 1.703125 -3.589844 2.445312 -3.710938 C 2.867188 -3.777344 3.335938 -3.90625 3.839844 -4.152344 C 5.164062 -4.691406 6.414062 -5.707031 7.691406 -7.21875 C 8.109375 -7.667969 8.550781 -8.28125 9.085938 -9.019531 C 9.574219 -9.695312 10.105469 -10.433594 10.632812 -11.226562 C 11.539062 -12.675781 12.339844 -14.109375 13.085938 -15.535156 C 13.78125 -16.953125 14.121094 -17.875 14.054688 -18.300781 C 13.992188 -18.671875 13.835938 -18.972656 13.582031 -19.203125 C 13.273438 -19.421875 12.929688 -19.53125 12.613281 -19.480469 C 12.242188 -19.421875 11.949219 -19.210938 11.71875 -18.957031 C 11.453125 -18.585938 11.167969 -17.996094 10.8125 -17.179688 C 9.554688 -14.203125 7.996094 -11.726562 6.257812 -9.703125 C 4.476562 -7.625 3.066406 -6.582031 2.089844 -6.585938 C 1.65625 -6.570312 1.234375 -6.828125 0.917969 -7.429688 C 0.605469 -8.03125 0.363281 -8.863281 0.175781 -10.027344 C -0.0820312 -11.617188 -0.191406 -12.628906 -0.109375 -13.132812 C -0.0742188 -13.574219 0.230469 -14.058594 0.753906 -14.523438 C 0.949219 -14.660156 1.363281 -15.109375 1.898438 -15.847656 C 2.445312 -16.480469 3.03125 -17.226562 3.558594 -18.019531 C 5.804688 -21.261719 7.535156 -24.691406 8.804688 -28.265625 C 10.074219 -31.839844 10.539062 -34.6875 10.179688 -36.910156 Z M 4.257812 -32.855469 C 4.695312 -33.851562 5.195312 -34.800781 5.800781 -35.769531 C 6.402344 -36.734375 6.757812 -37.226562 6.972656 -37.261719 C 7.128906 -37.289062 7.257812 -36.820312 7.34375 -35.964844 C 7.375 -35.097656 7.34375 -34.277344 7.25 -33.503906 C 6.996094 -31.722656 6.359375 -29.609375 5.339844 -27.164062 C 4.324219 -24.714844 3.15625 -22.519531 1.894531 -20.574219 C 1.546875 -20.03125 1.183594 -19.589844 0.917969 -19.222656 C 0.660156 -18.800781 0.472656 -18.605469 0.421875 -18.597656 C 0.207031 -18.5625 0.246094 -19.332031 0.644531 -20.917969 C 0.933594 -22.484375 1.410156 -24.246094 1.96875 -26.183594 C 2.308594 -27.433594 2.710938 -28.640625 3.160156 -29.910156 C 3.570312 -31.0625 3.953125 -32.046875 4.257812 -32.855469 Z M 4.257812 -32.855469 "/></g></g></g><g fill="#479c9c" fill-opacity="1"><g transform="translate(114.774826, 56.872239)"><g/></g></g><g fill="#479c9c" fill-opacity="1"><g transform="translate(129.390278, 54.51236)"><g><path d="M 17.121094 -44.390625 C 17.015625 -44.371094 16.902344 -44.410156 16.796875 -44.390625 L 16.636719 -44.367188 L 16.480469 -44.339844 C 15.914062 -44.140625 15.320312 -43.445312 14.710938 -42.152344 C 14.054688 -40.851562 13.042969 -38.351562 11.675781 -34.707031 C 11.105469 -33.203125 10.425781 -31.351562 9.585938 -29.152344 C 8.699219 -26.890625 7.929688 -24.917969 7.324219 -23.300781 C 6.671875 -21.617188 6.089844 -20.164062 5.582031 -18.941406 C 5.027344 -17.65625 4.75 -17.015625 4.707031 -16.953125 C 4.617188 -16.832031 4.316406 -16.671875 3.910156 -16.5 C 3.453125 -16.316406 2.949219 -16.070312 2.433594 -15.878906 C 1.871094 -15.679688 1.3125 -15.425781 0.808594 -15.183594 C 0.3125 -14.886719 -0.0390625 -14.71875 -0.234375 -14.578125 C -0.527344 -14.371094 -0.714844 -14.175781 -0.75 -14.0625 C -0.828125 -13.886719 -0.796875 -13.675781 -0.691406 -13.363281 C -0.589844 -12.730469 -0.308594 -12.339844 0.132812 -12.300781 C 0.476562 -12.195312 1.15625 -12.359375 2.171875 -12.792969 C 2.429688 -12.890625 2.683594 -12.984375 2.898438 -13.019531 C 3.109375 -13.054688 3.222656 -13.019531 3.222656 -13.019531 C 3.257812 -12.808594 3.050781 -12.066406 2.515625 -10.675781 C 1.976562 -9.285156 1.351562 -7.773438 0.726562 -6.257812 C 0.246094 -5.203125 -0.199219 -4.261719 -0.601562 -3.382812 C -0.992188 -2.449219 -1.375 -1.789062 -1.625 -1.3125 C -2.175781 -0.355469 -2.664062 0.320312 -3.074219 0.824219 C -3.527344 1.382812 -3.988281 1.894531 -4.464844 2.296875 C -5.136719 2.839844 -5.5625 3.234375 -5.722656 3.585938 C -5.902344 3.832031 -5.914062 4.105469 -5.871094 4.371094 C -5.851562 4.476562 -5.828125 4.636719 -5.757812 4.734375 C -5.546875 5.351562 -5.179688 5.617188 -4.648438 5.53125 L -4.597656 5.523438 C -4.066406 5.4375 -3.332031 4.941406 -2.277344 4.0625 C -1.320312 3.257812 -0.335938 1.957031 0.730469 0.152344 C 1.796875 -1.648438 3.242188 -4.816406 5.058594 -9.402344 C 5.523438 -10.5625 5.984375 -11.726562 6.441406 -12.941406 C 6.90625 -14.101562 7.246094 -14.699219 7.34375 -14.769531 C 7.644531 -14.929688 8.359375 -15.207031 9.382812 -15.589844 C 10.425781 -15.867188 11.050781 -16.023438 11.160156 -16.039062 C 11.21875 -15.996094 11.289062 -15.898438 11.316406 -15.738281 C 11.339844 -15.578125 11.324219 -15.359375 11.3125 -15.085938 C 11.222656 -14.636719 11.148438 -14.082031 11.144531 -13.429688 C 11.042969 -12.707031 11.003906 -11.9375 11.019531 -11.179688 C 10.941406 -9.644531 10.976562 -8.074219 11.023438 -6.453125 C 11.011719 -4.820312 11.078125 -3.417969 11.195312 -2.351562 C 11.261719 -1.601562 11.339844 -1.125 11.433594 -0.867188 C 11.476562 -0.601562 11.617188 -0.410156 11.863281 -0.230469 C 12.125 0.0507812 12.523438 0.152344 12.945312 0.0820312 C 13.371094 0.015625 13.722656 -0.152344 13.9375 -0.511719 C 13.972656 -0.625 13.992188 -0.847656 14.046875 -1.179688 C 14.046875 -1.507812 14.050781 -1.832031 14.050781 -2.160156 C 13.847656 -3.429688 13.753906 -4.667969 13.761719 -5.972656 C 13.664062 -7.257812 13.660156 -8.617188 13.746094 -10.097656 C 13.851562 -12.832031 14.191406 -16.09375 14.777344 -19.882812 C 15.253906 -23.65625 16.039062 -28.5625 17.136719 -34.554688 C 17.460938 -36.238281 17.742188 -37.859375 17.945312 -39.304688 C 18.144531 -40.75 18.265625 -41.695312 18.320312 -42.027344 C 18.3125 -42.40625 18.3125 -42.734375 18.261719 -43.050781 C 18.226562 -43.265625 18.132812 -43.519531 18.097656 -43.730469 C 17.871094 -44.128906 17.5625 -44.351562 17.121094 -44.390625 Z M 11.921875 -27.464844 C 12.074219 -27.871094 12.21875 -28.328125 12.449219 -28.910156 L 13.058594 -30.527344 C 13.441406 -31.515625 13.78125 -32.4375 14.085938 -33.25 C 14.390625 -34.058594 14.550781 -34.410156 14.601562 -34.417969 C 14.613281 -34.367188 14.429688 -33.46875 14.15625 -31.792969 C 13.785156 -30.046875 13.433594 -28.199219 13.089844 -26.296875 C 12.753906 -24.664062 12.445312 -23.203125 12.21875 -21.917969 C 11.949219 -20.566406 11.796875 -19.835938 11.769531 -19.667969 C 11.6875 -19.492188 11.546875 -19.363281 11.289062 -19.265625 C 10.988281 -19.109375 10.582031 -18.933594 10.0625 -18.796875 C 9.335938 -18.570312 8.769531 -18.371094 8.453125 -18.320312 C 8.828125 -19.359375 9.089844 -20.105469 9.320312 -20.6875 C 9.554688 -21.269531 9.9375 -22.253906 10.472656 -23.644531 C 10.921875 -24.914062 11.421875 -26.1875 11.921875 -27.464844 Z M 11.921875 -27.464844 "/></g></g></g><g fill="#479c9c" fill-opacity="1"><g transform="translate(151.101638, 51.006742)"><g><path d="M -2.238281 -3.769531 C -1.871094 -3.503906 -1.527344 -3.394531 -1.261719 -3.4375 L -1.207031 -3.445312 C -0.996094 -3.480469 -0.695312 -3.636719 -0.316406 -3.96875 C 0.0742188 -4.25 0.546875 -5.03125 1.054688 -6.257812 C 1.519531 -7.417969 2.191406 -9.320312 3.066406 -11.960938 C 3.902344 -14.542969 4.6875 -16.734375 5.386719 -18.476562 C 6.089844 -20.164062 6.777344 -21.636719 7.542969 -22.953125 C 8.46875 -24.625 9.207031 -25.777344 9.863281 -26.425781 C 10.464844 -27.066406 10.640625 -26.988281 10.40625 -26.078125 C 10.199219 -25.339844 10.292969 -24.757812 10.574219 -24.367188 C 10.871094 -23.871094 11.277344 -23.71875 11.914062 -23.824219 C 12.28125 -23.882812 12.574219 -24.09375 12.839844 -24.460938 C 13.011719 -24.761719 13.234375 -25.394531 13.414062 -26.292969 C 13.597656 -27.191406 13.625 -28.011719 13.515625 -28.699219 C 13.480469 -28.914062 13.402344 -29.0625 13.367188 -29.273438 C 13.089844 -29.992188 12.574219 -30.503906 11.78125 -30.703125 C 11.496094 -30.765625 11.222656 -30.777344 10.960938 -30.734375 C 10.4375 -30.59375 9.890625 -30.289062 9.304688 -29.867188 C 8.394531 -29.125 7.390625 -27.929688 6.296875 -26.285156 C 5.25 -24.703125 4.199219 -22.792969 3.207031 -20.515625 C 2.171875 -18.175781 1.191406 -15.515625 0.265625 -12.488281 C -0.00390625 -11.792969 -0.226562 -11.15625 -0.367188 -10.699219 C -0.558594 -10.179688 -0.683594 -9.941406 -0.691406 -9.996094 C -0.804688 -10.03125 -0.730469 -10.914062 -0.472656 -12.695312 C -0.210938 -14.421875 0.128906 -16.378906 0.597656 -18.519531 C 1.050781 -20.765625 1.25 -22.210938 1.21875 -22.746094 C 1.132812 -23.277344 0.800781 -23.660156 0.164062 -23.882812 C -0.398438 -24.007812 -0.804688 -23.835938 -1.054688 -23.359375 C -1.355469 -22.875 -1.671875 -21.792969 -1.996094 -20.109375 C -3.136719 -14.710938 -3.695312 -10.761719 -3.734375 -8.308594 C -3.773438 -7.542969 -3.714844 -6.84375 -3.628906 -6.316406 C -3.414062 -4.992188 -2.949219 -4.140625 -2.238281 -3.769531 Z M -2.238281 -3.769531 "/></g></g></g><g fill="#479c9c" fill-opacity="1"><g transform="translate(166.29959, 48.55281)"><g><path d="M 0.597656 -1.671875 L 1.183594 -1.765625 C 2.136719 -1.921875 3.046875 -2.339844 4.011719 -3.09375 C 5.125 -3.925781 6.457031 -5.445312 7.96875 -7.535156 C 8.945312 -8.890625 10.007812 -10.363281 11.09375 -12.0625 C 12.132812 -13.695312 12.988281 -15.140625 13.65625 -16.386719 C 13.984375 -17.039062 14.269531 -17.628906 14.46875 -18.09375 C 14.664062 -18.5625 14.78125 -18.851562 14.753906 -19.011719 C 14.703125 -19.328125 14.492188 -19.621094 14.175781 -19.894531 C 13.816406 -20.109375 13.472656 -20.214844 13.101562 -20.15625 C 12.785156 -20.105469 12.5 -19.84375 12.242188 -19.421875 C 11.886719 -18.929688 11.328125 -18.023438 10.472656 -16.582031 C 8.523438 -13.167969 6.648438 -10.3125 4.742188 -7.992188 C 2.789062 -5.613281 1.496094 -4.535156 0.816406 -4.695312 C 0.597656 -4.714844 0.414062 -4.847656 0.359375 -5.167969 C 0.320312 -5.429688 0.207031 -6.121094 0.0898438 -7.1875 C -0.03125 -7.929688 -0.0429688 -8.6875 -0.0234375 -9.558594 C -0.0546875 -10.425781 -0.015625 -11.191406 0.078125 -11.96875 C 0.164062 -13.121094 0.429688 -14.851562 0.871094 -17.148438 C 1.269531 -19.386719 1.722656 -21.632812 2.140625 -23.765625 C 2.394531 -24.894531 2.601562 -25.960938 2.816406 -26.972656 C 2.988281 -27.925781 3.1875 -28.71875 3.367188 -29.289062 C 3.699219 -30.59375 3.917969 -31.605469 4.132812 -32.292969 C 4.546875 -32.414062 4.910156 -32.527344 5.113281 -32.613281 C 5.378906 -32.65625 5.847656 -32.789062 6.578125 -32.960938 C 7.265625 -33.070312 7.945312 -33.234375 8.6875 -33.355469 C 10.117188 -33.585938 11.0625 -33.792969 11.503906 -34.082031 C 11.957031 -34.316406 12.160156 -34.730469 12.074219 -35.261719 C 11.972656 -35.894531 11.648438 -36.222656 11.191406 -36.367188 C 10.742188 -36.457031 9.664062 -36.394531 8.078125 -36.136719 L 5.058594 -35.648438 L 5.140625 -36.152344 L 5.328125 -36.996094 L 5.6875 -38.140625 C 5.785156 -38.539062 5.886719 -38.933594 5.984375 -39.332031 C 6.03125 -39.71875 6.09375 -40 6.070312 -40.160156 C 6 -40.582031 5.789062 -40.875 5.492188 -41.042969 C 5.191406 -41.214844 4.855469 -41.269531 4.539062 -41.214844 L 4.378906 -41.191406 C 4.019531 -41.078125 3.777344 -40.875 3.609375 -40.578125 C 3.449219 -40.226562 3.164062 -39.308594 2.730469 -37.9375 C 2.375 -36.792969 2.121094 -35.988281 1.925781 -35.523438 C 1.683594 -34.996094 1.515625 -34.695312 1.359375 -34.671875 C 1.199219 -34.644531 0.835938 -34.53125 0.324219 -34.339844 C -0.242188 -34.140625 -0.859375 -33.933594 -1.476562 -33.722656 C -3.023438 -33.203125 -4.050781 -32.820312 -4.554688 -32.574219 C -5.101562 -32.269531 -5.421875 -31.890625 -5.574219 -31.488281 C -5.742188 -31.1875 -5.761719 -30.96875 -5.691406 -30.871094 C -5.664062 -30.710938 -5.578125 -30.507812 -5.324219 -30.277344 C -5.058594 -29.992188 -4.875 -29.859375 -4.707031 -29.832031 C -4.539062 -29.804688 -4.171875 -29.867188 -3.648438 -30.003906 C -3.332031 -30.054688 -2.871094 -30.238281 -2.359375 -30.429688 C -1.839844 -30.570312 -1.371094 -30.699219 -0.964844 -30.871094 C -0.546875 -30.996094 -0.132812 -31.117188 0.175781 -31.21875 C 0.492188 -31.269531 0.652344 -31.296875 0.707031 -31.304688 C 0.714844 -31.253906 0.703125 -30.980469 0.628906 -30.425781 C 0.503906 -29.859375 0.394531 -29.191406 0.195312 -28.398438 C -0.414062 -26.125 -0.9375 -23.648438 -1.410156 -20.855469 C -1.929688 -18 -2.269531 -15.394531 -2.542969 -13.066406 C -2.710938 -11.734375 -2.796875 -10.578125 -2.84375 -9.539062 C -2.9375 -8.4375 -2.96875 -7.617188 -2.917969 -6.972656 C -2.914062 -6.59375 -2.851562 -6.222656 -2.800781 -5.90625 C -2.699219 -5.269531 -2.542969 -4.644531 -2.296875 -4.140625 C -1.949219 -3.324219 -1.519531 -2.6875 -0.976562 -2.34375 C -0.722656 -2.113281 -0.476562 -1.933594 -0.140625 -1.878906 C 0.160156 -1.710938 0.386719 -1.636719 0.597656 -1.671875 Z M 0.597656 -1.671875 "/></g></g></g><g fill="#479c9c" fill-opacity="1"><g transform="translate(181.497541, 46.098878)"><g><path d="M 4.585938 -24.433594 C 4.394531 -24.621094 4.199219 -24.804688 4.078125 -24.894531 C 3.902344 -24.972656 3.726562 -25.054688 3.558594 -25.082031 L 3.503906 -25.074219 C 3.238281 -25.03125 2.992188 -24.882812 2.753906 -24.679688 C 2.417969 -24.410156 2.042969 -24.023438 1.628906 -23.574219 C 0.148438 -21.976562 -0.972656 -20.492188 -1.621094 -19.136719 C -2.316406 -17.722656 -2.660156 -16.46875 -2.578125 -15.289062 C -2.546875 -14.425781 -2.375 -13.691406 -1.988281 -12.992188 C -1.65625 -12.285156 -1.105469 -11.558594 -0.28125 -10.824219 C -0.015625 -10.539062 0.246094 -10.253906 0.492188 -10.078125 C 0.703125 -9.785156 0.78125 -9.636719 0.78125 -9.636719 C 0.789062 -9.582031 0.699219 -9.460938 0.574219 -9.222656 C 0.40625 -8.921875 0.238281 -8.625 0.0703125 -8.324219 C -0.972656 -6.691406 -1.550781 -5.238281 -1.628906 -4.03125 C -1.675781 -3.640625 -1.675781 -3.316406 -1.632812 -3.050781 C -1.503906 -2.257812 -1.136719 -1.664062 -0.46875 -1.226562 C -0.101562 -0.960938 0.410156 -0.828125 1.117188 -0.832031 C 1.335938 -0.8125 1.546875 -0.847656 1.757812 -0.882812 C 2.183594 -0.949219 2.546875 -1.0625 2.945312 -1.289062 C 3.4375 -1.585938 3.960938 -2.050781 4.566406 -2.691406 C 5.121094 -3.273438 5.515625 -3.878906 5.800781 -4.46875 C 6.085938 -5.058594 6.238281 -5.789062 6.191406 -6.757812 C 6.152344 -7.675781 6.03125 -8.417969 5.714844 -9.019531 C 5.429688 -9.460938 5.269531 -9.761719 5.289062 -9.984375 C 5.261719 -10.140625 5.34375 -10.316406 5.53125 -10.511719 C 7 -11.835938 8.339844 -12.976562 9.480469 -13.976562 C 10.625 -14.972656 11.632812 -15.789062 12.457031 -16.410156 C 12.996094 -16.769531 13.476562 -17.171875 13.898438 -17.570312 C 14.273438 -17.953125 14.503906 -18.210938 14.582031 -18.386719 C 14.621094 -18.5 14.648438 -18.667969 14.621094 -18.824219 C 14.585938 -19.039062 14.445312 -19.234375 14.296875 -19.480469 C 13.980469 -19.753906 13.628906 -19.914062 13.1875 -19.953125 C 12.710938 -19.875 11.863281 -19.414062 10.640625 -18.5625 C 9.375 -17.652344 7.933594 -16.496094 6.320312 -15.039062 C 4.511719 -13.445312 3.511719 -12.578125 3.265625 -12.425781 C 3.023438 -12.226562 2.761719 -12.183594 2.410156 -12.34375 C 2.242188 -12.371094 2.054688 -12.503906 1.792969 -12.789062 C 1.546875 -12.964844 1.292969 -13.195312 1.082031 -13.488281 C 0.335938 -14.402344 0.113281 -15.449219 0.410156 -16.640625 C 0.664062 -17.769531 1.527344 -19.15625 2.945312 -20.800781 C 3.992188 -22.054688 4.621094 -22.863281 4.828125 -23.277344 C 4.988281 -23.628906 4.867188 -24.042969 4.585938 -24.433594 Z M 1.28125 -4.175781 C 1.238281 -4.4375 1.515625 -5.082031 2.015625 -6.03125 C 2.511719 -6.980469 2.816406 -7.464844 3.027344 -7.5 C 3.355469 -7.496094 3.46875 -7.136719 3.359375 -6.464844 C 3.257812 -5.742188 3.023438 -5.160156 2.609375 -4.714844 C 2.476562 -4.53125 2.339844 -4.34375 2.148438 -4.203125 C 1.960938 -4.011719 1.820312 -3.878906 1.714844 -3.863281 C 1.519531 -3.722656 1.414062 -3.707031 1.402344 -3.757812 C 1.34375 -3.804688 1.316406 -3.960938 1.28125 -4.175781 Z M 1.28125 -4.175781 "/></g></g></g><g fill="#479c9c" fill-opacity="1"><g transform="translate(196.702065, 43.643884)"><g/></g></g><g fill="#fe6d73" fill-opacity="1"><g transform="translate(29.174927, 106.927266)"><g><path d="M 4.46875 -0.136719 C 4.871094 -0.046875 5.417969 -0.0546875 6.101562 -0.164062 C 6.367188 -0.207031 6.671875 -0.257812 7.007812 -0.351562 C 8.136719 -0.613281 9.027344 -0.910156 9.738281 -1.339844 C 11.683594 -2.355469 13.433594 -3.847656 15 -5.738281 C 16.574219 -7.59375 17.707031 -9.535156 18.398438 -11.519531 C 18.992188 -13.175781 19.140625 -14.917969 18.886719 -16.710938 L 18.84375 -16.980469 C 18.574219 -18.652344 17.972656 -19.960938 17.105469 -20.992188 C 16.777344 -21.328125 16.324219 -21.722656 15.710938 -22.132812 C 15.105469 -22.503906 14.59375 -22.773438 14.175781 -22.9375 C 13.5625 -23.113281 12.882812 -23.199219 12.175781 -23.242188 C 11.390625 -23.269531 10.617188 -23.222656 9.777344 -23.089844 C 9.320312 -23.015625 8.941406 -22.953125 8.632812 -22.941406 C 8.328125 -22.890625 8.167969 -22.90625 8.15625 -22.980469 C 8.15625 -22.980469 8.144531 -23.058594 8.203125 -23.183594 L 8.425781 -23.492188 C 8.488281 -23.582031 8.617188 -23.757812 8.800781 -24.0625 C 8.949219 -24.359375 9.097656 -24.65625 9.28125 -24.960938 C 10.074219 -26.570312 10.46875 -28 10.4375 -29.167969 C 10.40625 -30.332031 9.996094 -31.164062 9.167969 -31.695312 C 8.476562 -32.128906 7.710938 -32.277344 6.796875 -32.132812 C 6.300781 -32.050781 5.78125 -31.890625 5.273438 -31.652344 C 3.710938 -30.929688 2.042969 -29.644531 0.28125 -27.761719 C -0.152344 -27.300781 -0.667969 -26.632812 -1.320312 -25.824219 C -1.964844 -24.976562 -2.53125 -24.144531 -3.105469 -23.347656 C -3.417969 -22.871094 -3.664062 -22.441406 -3.910156 -22.046875 C -4.191406 -21.613281 -4.410156 -21.265625 -4.5625 -21.007812 C -4.984375 -20.234375 -5.121094 -19.628906 -5.054688 -19.210938 L -5.042969 -19.132812 C -4.96875 -18.675781 -4.632812 -18.535156 -4.023438 -18.632812 C -3.796875 -18.671875 -3.617188 -18.777344 -3.421875 -19.003906 C -3.292969 -19.183594 -3.011719 -19.617188 -2.582031 -20.351562 C -2.046875 -21.375 -1.292969 -22.511719 -0.398438 -23.746094 C 0.492188 -24.984375 1.308594 -25.976562 2.011719 -26.714844 C 2.875 -27.632812 3.804688 -28.410156 4.792969 -29.074219 C 5.707031 -29.691406 6.507812 -30.054688 7.191406 -30.164062 C 7.535156 -30.21875 7.824219 -30.109375 8.089844 -29.917969 C 8.316406 -29.722656 8.441406 -29.429688 8.464844 -29.042969 C 8.449219 -28.183594 8.113281 -27.113281 7.453125 -25.875 C 6.796875 -24.636719 6 -23.53125 5.03125 -22.515625 C 4.535156 -21.96875 4.023438 -21.496094 3.539062 -21.105469 C 3.019531 -20.707031 2.734375 -20.546875 2.644531 -20.609375 C 2.605469 -20.601562 2.613281 -20.800781 2.667969 -21.199219 C 2.6875 -21.550781 2.773438 -21.996094 2.851562 -22.476562 C 2.957031 -23.273438 3.027344 -23.792969 3.066406 -24.035156 C 3.03125 -24.261719 2.992188 -24.492188 2.882812 -24.707031 C 2.6875 -24.949219 2.433594 -25.0625 2.085938 -25.046875 C 1.734375 -25.03125 1.480469 -24.910156 1.328125 -24.652344 C 1.207031 -24.4375 0.933594 -23.222656 0.554688 -20.972656 C 0.140625 -18.722656 -0.300781 -15.878906 -0.773438 -12.523438 C -0.960938 -11.28125 -1.148438 -10.003906 -1.324219 -8.6875 L -1.777344 -5.6875 C -2 -4.402344 -2.058594 -3.570312 -2.011719 -3.265625 C -1.949219 -2.886719 -1.753906 -2.644531 -1.347656 -2.554688 C -1.097656 -2.4375 -0.867188 -2.476562 -0.652344 -2.589844 C -0.4375 -2.699219 -0.277344 -2.921875 -0.167969 -3.214844 C -0.148438 -3.332031 -0.0507812 -3.933594 0.132812 -4.980469 C 0.277344 -6.015625 0.480469 -7.183594 0.65625 -8.5 C 0.835938 -9.816406 1.046875 -11.175781 1.253906 -12.539062 C 1.464844 -13.898438 1.621094 -14.863281 1.71875 -15.460938 L 2.074219 -17.628906 L 3.234375 -18.402344 C 5.347656 -19.835938 7.542969 -20.734375 9.75 -21.09375 C 11.957031 -21.449219 13.640625 -21.175781 14.871094 -20.320312 C 15.453125 -19.867188 15.917969 -19.394531 16.28125 -18.828125 C 16.609375 -18.257812 16.839844 -17.554688 16.96875 -16.753906 C 17.042969 -16.0625 17.058594 -15.480469 17.066406 -14.933594 C 17 -14.378906 16.929688 -13.859375 16.8125 -13.371094 C 16.398438 -11.585938 15.585938 -9.855469 14.40625 -8.21875 C 13.191406 -6.542969 11.785156 -5.105469 10.132812 -3.976562 C 9.292969 -3.375 8.574219 -2.984375 8.066406 -2.746094 C 7.480469 -2.496094 6.847656 -2.316406 6.125 -2.199219 C 4.296875 -1.902344 3.242188 -2.398438 2.957031 -3.679688 C 2.671875 -4.960938 3.214844 -6.6875 4.605469 -8.941406 C 5.199219 -9.855469 5.527344 -10.496094 5.617188 -10.898438 C 5.644531 -11.21875 5.480469 -11.503906 5.101562 -11.675781 C 4.765625 -11.816406 4.496094 -11.8125 4.246094 -11.65625 C 4.003906 -11.460938 3.640625 -11.050781 3.164062 -10.386719 C 2.339844 -9.199219 1.71875 -7.96875 1.292969 -6.726562 C 0.871094 -5.488281 0.730469 -4.414062 0.867188 -3.574219 C 1.015625 -2.664062 1.402344 -1.945312 2.046875 -1.34375 C 2.695312 -0.707031 3.503906 -0.292969 4.46875 -0.136719 Z M 4.46875 -0.136719 "/></g></g></g><g fill="#fe6d73" fill-opacity="1"><g transform="translate(51.009877, 103.401693)"><g><path d="M 4.878906 -16.441406 L 4.804688 -16.429688 L 4.726562 -16.417969 L 4.6875 -16.410156 C 4.460938 -16.375 4.289062 -16.230469 4.171875 -15.976562 C 4.019531 -15.71875 3.730469 -15.085938 3.308594 -14.078125 C 2.820312 -12.984375 2.203125 -11.988281 1.460938 -11.011719 C 0.691406 -9.988281 0.175781 -9.554688 -0.015625 -9.757812 C -0.101562 -9.820312 -0.121094 -10.167969 -0.0664062 -10.800781 C -0.0117188 -11.4375 0.117188 -12.082031 0.25 -12.726562 C 0.34375 -13.09375 0.378906 -13.371094 0.390625 -13.53125 C 0.367188 -13.683594 0.304688 -13.828125 0.199219 -14.007812 C 0.0078125 -14.210938 -0.175781 -14.375 -0.414062 -14.414062 C -0.695312 -14.449219 -0.953125 -14.367188 -1.164062 -14.214844 C -1.441406 -14.015625 -1.695312 -13.390625 -1.886719 -12.421875 C -2.109375 -11.371094 -2.15625 -10.464844 -2.066406 -9.660156 C -1.960938 -9.011719 -1.757812 -8.460938 -1.371094 -8.015625 C -1.027344 -7.5625 -0.53125 -7.410156 0.0742188 -7.507812 C 0.609375 -7.59375 1.148438 -7.875 1.734375 -8.359375 C 2.28125 -8.839844 2.910156 -9.527344 3.613281 -10.5 L 4.859375 -12.222656 L 5.074219 -10.148438 C 5.125 -9.609375 5.175781 -9.035156 5.226562 -8.496094 C 5.242188 -7.910156 5.289062 -7.375 5.292969 -6.867188 C 5.300781 -5.851562 5.320312 -4.996094 5.28125 -4.289062 C 5.238281 -3.578125 5.179688 -3.21875 5.105469 -3.207031 C 5.027344 -3.191406 4.988281 -3.1875 4.902344 -3.25 L 4.636719 -3.441406 C 4.460938 -3.570312 4.292969 -3.621094 4.09375 -3.667969 C 3.863281 -3.628906 3.4375 -3.601562 2.832031 -3.5 C 0.546875 -3.132812 -1.371094 -2.199219 -2.96875 -0.730469 C -4.597656 0.78125 -5.402344 2.316406 -5.296875 3.9375 C -5.3125 4.097656 -5.285156 4.25 -5.269531 4.363281 C -5.15625 5.046875 -4.867188 5.625 -4.402344 6.097656 C -3.875 6.714844 -3.152344 7.066406 -2.265625 7.238281 C -1.660156 7.371094 -1.039062 7.351562 -0.390625 7.246094 C 0.140625 7.160156 0.660156 6.996094 1.207031 6.753906 C 2.375 6.253906 3.464844 5.492188 4.382812 4.40625 C 5.363281 3.234375 6.144531 1.78125 6.671875 -0.0234375 C 7.167969 -1.78125 7.375 -3.882812 7.363281 -6.378906 C 7.363281 -6.847656 7.316406 -7.621094 7.222656 -8.699219 C 7.132812 -9.738281 7 -10.8125 6.859375 -11.921875 C 6.660156 -13.136719 6.550781 -14.058594 6.453125 -14.664062 L 6.351562 -15.3125 C 6.257812 -15.648438 6.09375 -15.933594 5.902344 -16.136719 C 5.726562 -16.265625 5.550781 -16.394531 5.425781 -16.453125 C 5.265625 -16.464844 5.070312 -16.472656 4.878906 -16.441406 Z M 1.46875 -1.058594 C 1.875 -1.199219 2.289062 -1.304688 2.699219 -1.410156 C 3.113281 -1.515625 3.488281 -1.617188 3.828125 -1.671875 C 4.132812 -1.722656 4.40625 -1.726562 4.632812 -1.761719 C 4.832031 -1.753906 4.949219 -1.734375 4.957031 -1.699219 C 4.96875 -1.621094 4.917969 -1.457031 4.882812 -1.179688 C 4.773438 -0.886719 4.710938 -0.566406 4.605469 -0.238281 C 4.324219 0.667969 3.914062 1.515625 3.339844 2.308594 C 2.773438 3.144531 2.210938 3.78125 1.613281 4.191406 C 0.285156 5.144531 -0.945312 5.5 -2.007812 5.203125 C -3.105469 4.953125 -3.492188 4.234375 -3.175781 3.050781 C -2.988281 2.277344 -2.414062 1.484375 -1.492188 0.671875 C -0.601562 -0.0976562 0.394531 -0.6875 1.46875 -1.058594 Z M 1.46875 -1.058594 "/></g></g></g><g fill="#fe6d73" fill-opacity="1"><g transform="translate(61.128512, 101.76789)"><g/></g></g><g fill="#fe6d73" fill-opacity="1"><g transform="translate(71.627547, 100.072667)"><g><path d="M 12.324219 -33.179688 L 12.023438 -33.132812 L 11.71875 -33.082031 C 10.878906 -32.945312 10.277344 -32.808594 9.910156 -32.671875 C 9.542969 -32.535156 9.101562 -32.347656 8.53125 -32.019531 C 6.535156 -30.839844 5.128906 -29.402344 4.316406 -27.671875 C 3.46875 -25.894531 3.519531 -24.378906 4.414062 -23.199219 C 4.867188 -22.566406 5.476562 -22.160156 6.226562 -21.890625 C 6.972656 -21.621094 8.179688 -21.386719 9.878906 -21.269531 C 11.582031 -21.113281 12.789062 -20.878906 13.546875 -20.535156 C 14.273438 -20.144531 14.878906 -19.539062 15.332031 -18.675781 C 15.582031 -18.089844 15.820312 -17.347656 15.972656 -16.398438 C 16.132812 -15.410156 16.148438 -14.589844 16.105469 -13.882812 C 15.90625 -11.742188 15.203125 -9.558594 13.996094 -7.375 C 12.785156 -5.1875 11.3125 -3.425781 9.578125 -2.09375 C 7.980469 -0.859375 6.414062 -0.175781 4.871094 -0.046875 C 3.300781 0.128906 2.136719 -0.304688 1.425781 -1.324219 C 0.4375 -2.609375 0.425781 -4.363281 1.472656 -6.601562 C 2.523438 -8.800781 4.324219 -10.925781 6.875 -13.015625 C 7.601562 -13.601562 8.515625 -14.21875 9.585938 -14.859375 C 10.652344 -15.5 11.59375 -15.964844 12.394531 -16.328125 C 13.089844 -16.597656 13.59375 -16.871094 13.890625 -17.195312 C 14.160156 -17.472656 14.226562 -17.792969 14.09375 -18.125 C 13.917969 -18.488281 13.660156 -18.640625 13.304688 -18.660156 C 12.949219 -18.679688 12.351562 -18.507812 11.507812 -18.175781 C 9.464844 -17.296875 7.511719 -16.085938 5.679688 -14.617188 C 3.8125 -13.144531 2.308594 -11.574219 1.132812 -9.902344 C 0.464844 -8.976562 -0.0546875 -8.070312 -0.457031 -7.1875 C -0.855469 -6.265625 -1.144531 -5.398438 -1.25 -4.601562 C -1.375 -3.914062 -1.34375 -3.257812 -1.242188 -2.609375 C -1.167969 -2.152344 -1.050781 -1.664062 -0.863281 -1.226562 C -0.457031 -0.160156 0.179688 0.632812 1 1.125 C 1.660156 1.566406 2.324219 1.8125 3.007812 1.933594 C 3.652344 2.066406 4.46875 2.050781 5.464844 1.929688 C 5.882812 1.859375 6.191406 1.851562 6.421875 1.8125 L 6.496094 1.800781 C 6.878906 1.738281 7.214844 1.644531 7.507812 1.519531 C 7.796875 1.394531 8.015625 1.28125 8.230469 1.167969 C 8.851562 0.914062 9.597656 0.441406 10.429688 -0.199219 C 11.230469 -0.796875 11.949219 -1.421875 12.585938 -2.070312 C 14.394531 -3.925781 15.804688 -6.066406 16.75 -8.441406 C 17.691406 -10.820312 18.1875 -13.085938 18.152344 -15.226562 C 18.125 -16.355469 17.953125 -17.421875 17.628906 -18.460938 C 17.320312 -19.425781 16.828125 -20.285156 16.199219 -21.039062 C 15.582031 -21.722656 14.832031 -22.265625 13.917969 -22.585938 C 13.007812 -22.90625 11.761719 -23.136719 10.097656 -23.296875 C 9.425781 -23.34375 8.785156 -23.433594 8.222656 -23.539062 C 7.628906 -23.597656 7.222656 -23.691406 7.058594 -23.742188 C 6.199219 -23.992188 5.757812 -24.546875 5.78125 -25.371094 C 5.769531 -26.148438 6.167969 -27.074219 6.976562 -28.101562 C 7.859375 -29.179688 9.003906 -30.066406 10.425781 -30.6875 C 11.816406 -31.261719 13 -31.414062 14.058594 -31.15625 C 14.589844 -31.007812 15.027344 -30.960938 15.332031 -31.011719 C 15.636719 -31.058594 15.875 -31.253906 15.984375 -31.546875 C 16.074219 -31.714844 16.121094 -31.917969 16.089844 -32.109375 C 16.070312 -32.222656 16.015625 -32.332031 15.914062 -32.472656 C 15.6875 -32.667969 15.265625 -32.875 14.683594 -33.09375 C 14.277344 -33.183594 13.917969 -33.242188 13.636719 -33.273438 C 13.359375 -33.308594 12.933594 -33.277344 12.324219 -33.179688 Z M 12.324219 -33.179688 "/></g></g></g><g fill="#fe6d73" fill-opacity="1"><g transform="translate(93.462498, 96.547094)"><g><path d="M 6.140625 -16.839844 C 6.023438 -16.859375 5.941406 -16.886719 5.855469 -16.910156 C 5.742188 -16.894531 5.621094 -16.914062 5.546875 -16.902344 C 5.394531 -16.875 5.285156 -16.820312 5.148438 -16.71875 C 5.007812 -16.617188 4.828125 -16.511719 4.703125 -16.335938 C 4.511719 -16.070312 4.332031 -15.960938 4.257812 -15.949219 C 4.148438 -15.894531 3.914062 -15.894531 3.546875 -15.992188 C 2.75 -16.097656 1.949219 -15.96875 1.238281 -15.542969 C 0.449219 -15.101562 -0.257812 -14.402344 -0.957031 -13.429688 C -1.46875 -12.722656 -1.828125 -12.039062 -2.097656 -11.292969 C -2.40625 -10.542969 -2.527344 -9.859375 -2.480469 -9.320312 C -2.480469 -9.085938 -2.457031 -8.933594 -2.4375 -8.820312 C -2.414062 -8.667969 -2.402344 -8.589844 -2.351562 -8.519531 C -2.289062 -8.375 -2.101562 -8.171875 -1.753906 -7.953125 C -1.570312 -7.789062 -1.355469 -7.667969 -1.152344 -7.621094 C -0.980469 -7.53125 -0.824219 -7.519531 -0.671875 -7.542969 C -0.214844 -7.617188 0.363281 -7.90625 1.019531 -8.441406 C 1.679688 -8.9375 2.386719 -9.636719 3.140625 -10.539062 C 3.332031 -10.804688 3.527344 -11.03125 3.730469 -11.21875 C 3.898438 -11.402344 4 -11.496094 4.035156 -11.503906 C 4.042969 -11.464844 4.03125 -11.308594 4.027344 -11.074219 C 3.996094 -10.792969 3.96875 -10.476562 3.941406 -10.160156 C 3.847656 -9.289062 3.871094 -8.433594 3.929688 -7.582031 C 3.992188 -6.695312 4.128906 -6.09375 4.34375 -5.738281 C 4.40625 -5.589844 4.511719 -5.414062 4.695312 -5.246094 C 4.839844 -5.074219 4.980469 -4.941406 5.105469 -4.882812 C 5.445312 -4.703125 5.769531 -4.640625 6.148438 -4.703125 C 6.378906 -4.738281 6.671875 -4.863281 6.949219 -5.066406 C 7.585938 -5.480469 8.320312 -6.261719 9.066406 -7.4375 C 9.257812 -7.703125 9.46875 -8.085938 9.738281 -8.597656 C 9.980469 -9.027344 10.25 -9.539062 10.550781 -10.097656 C 10.972656 -10.867188 11.324219 -11.585938 11.675781 -12.308594 C 11.996094 -12.984375 12.164062 -13.402344 12.175781 -13.558594 C 12.164062 -13.636719 12.1875 -13.71875 12.175781 -13.792969 C 12.152344 -13.945312 12.046875 -14.125 11.90625 -14.257812 C 11.640625 -14.449219 11.394531 -14.527344 11.085938 -14.515625 C 10.78125 -14.464844 10.558594 -14.390625 10.457031 -14.296875 C 10.324219 -14.160156 10.144531 -13.816406 9.847656 -13.222656 C 8.683594 -10.769531 7.75 -9.058594 7.085938 -8.09375 C 6.390625 -7.082031 6.035156 -6.867188 5.941406 -7.441406 C 5.882812 -7.820312 5.878906 -8.5625 5.972656 -9.667969 C 6.078125 -10.703125 6.238281 -11.898438 6.484375 -13.265625 C 6.714844 -14.746094 6.800781 -15.660156 6.777344 -16.046875 C 6.753906 -16.433594 6.558594 -16.671875 6.140625 -16.839844 Z M 2.554688 -13.917969 C 2.59375 -13.925781 2.625 -13.96875 2.660156 -13.976562 L 2.777344 -13.992188 C 3.003906 -14.03125 3.023438 -13.917969 2.90625 -13.664062 C 2.761719 -13.367188 2.410156 -12.878906 1.886719 -12.25 C 1.167969 -11.390625 0.636719 -10.800781 0.300781 -10.472656 C -0.0703125 -10.097656 -0.253906 -10.03125 -0.277344 -10.183594 C -0.300781 -10.335938 -0.269531 -10.613281 -0.0898438 -10.953125 C 0.0898438 -11.296875 0.332031 -11.726562 0.714844 -12.253906 C 1.035156 -12.699219 1.328125 -13.058594 1.59375 -13.335938 C 1.875 -13.535156 2.191406 -13.742188 2.554688 -13.917969 Z M 2.554688 -13.917969 "/></g></g></g><g fill="#fe6d73" fill-opacity="1"><g transform="translate(105.673332, 94.575476)"><g><path d="M -1.609375 -2.707031 C -1.34375 -2.515625 -1.097656 -2.4375 -0.90625 -2.46875 L -0.867188 -2.476562 C -0.714844 -2.5 -0.5 -2.613281 -0.226562 -2.851562 C 0.0546875 -3.054688 0.390625 -3.617188 0.757812 -4.496094 C 1.089844 -5.328125 1.574219 -6.695312 2.203125 -8.59375 C 2.800781 -10.445312 3.367188 -12.019531 3.867188 -13.273438 C 4.375 -14.484375 4.867188 -15.542969 5.417969 -16.488281 C 6.082031 -17.691406 6.613281 -18.515625 7.085938 -18.984375 C 7.515625 -19.445312 7.644531 -19.386719 7.476562 -18.734375 C 7.328125 -18.203125 7.394531 -17.785156 7.597656 -17.503906 C 7.808594 -17.148438 8.101562 -17.039062 8.558594 -17.113281 C 8.824219 -17.15625 9.035156 -17.308594 9.226562 -17.574219 C 9.347656 -17.789062 9.507812 -18.242188 9.636719 -18.886719 C 9.765625 -19.535156 9.789062 -20.121094 9.710938 -20.617188 C 9.683594 -20.769531 9.628906 -20.878906 9.605469 -21.03125 C 9.402344 -21.542969 9.03125 -21.914062 8.460938 -22.054688 C 8.257812 -22.101562 8.0625 -22.109375 7.871094 -22.078125 C 7.5 -21.976562 7.105469 -21.757812 6.683594 -21.457031 C 6.03125 -20.921875 5.308594 -20.0625 4.523438 -18.882812 C 3.769531 -17.746094 3.015625 -16.375 2.304688 -14.738281 C 1.5625 -13.054688 0.855469 -11.144531 0.191406 -8.96875 C 0 -8.46875 -0.164062 -8.015625 -0.265625 -7.6875 C -0.398438 -7.3125 -0.488281 -7.144531 -0.496094 -7.179688 C -0.578125 -7.207031 -0.523438 -7.839844 -0.339844 -9.117188 C -0.148438 -10.359375 0.0898438 -11.765625 0.429688 -13.300781 C 0.753906 -14.917969 0.898438 -15.953125 0.875 -16.339844 C 0.8125 -16.722656 0.574219 -16.996094 0.117188 -17.15625 C -0.285156 -17.246094 -0.578125 -17.121094 -0.757812 -16.78125 C -0.976562 -16.433594 -1.199219 -15.65625 -1.433594 -14.445312 C -2.253906 -10.566406 -2.652344 -7.730469 -2.679688 -5.96875 C -2.710938 -5.417969 -2.667969 -4.917969 -2.605469 -4.535156 C -2.453125 -3.585938 -2.121094 -2.976562 -1.609375 -2.707031 Z M -1.609375 -2.707031 "/></g></g></g><g fill="#fe6d73" fill-opacity="1"><g transform="translate(116.590807, 92.812689)"><g><path d="M 6.140625 -16.839844 C 6.023438 -16.859375 5.941406 -16.886719 5.855469 -16.910156 C 5.742188 -16.894531 5.621094 -16.914062 5.546875 -16.902344 C 5.394531 -16.875 5.285156 -16.820312 5.148438 -16.71875 C 5.007812 -16.617188 4.828125 -16.511719 4.703125 -16.335938 C 4.511719 -16.070312 4.332031 -15.960938 4.257812 -15.949219 C 4.148438 -15.894531 3.914062 -15.894531 3.546875 -15.992188 C 2.75 -16.097656 1.949219 -15.96875 1.238281 -15.542969 C 0.449219 -15.101562 -0.257812 -14.402344 -0.957031 -13.429688 C -1.46875 -12.722656 -1.828125 -12.039062 -2.097656 -11.292969 C -2.40625 -10.542969 -2.527344 -9.859375 -2.480469 -9.320312 C -2.480469 -9.085938 -2.457031 -8.933594 -2.4375 -8.820312 C -2.414062 -8.667969 -2.402344 -8.589844 -2.351562 -8.519531 C -2.289062 -8.375 -2.101562 -8.171875 -1.753906 -7.953125 C -1.570312 -7.789062 -1.355469 -7.667969 -1.152344 -7.621094 C -0.980469 -7.53125 -0.824219 -7.519531 -0.671875 -7.542969 C -0.214844 -7.617188 0.363281 -7.90625 1.019531 -8.441406 C 1.679688 -8.9375 2.386719 -9.636719 3.140625 -10.539062 C 3.332031 -10.804688 3.527344 -11.03125 3.730469 -11.21875 C 3.898438 -11.402344 4 -11.496094 4.035156 -11.503906 C 4.042969 -11.464844 4.03125 -11.308594 4.027344 -11.074219 C 3.996094 -10.792969 3.96875 -10.476562 3.941406 -10.160156 C 3.847656 -9.289062 3.871094 -8.433594 3.929688 -7.582031 C 3.992188 -6.695312 4.128906 -6.09375 4.34375 -5.738281 C 4.40625 -5.589844 4.511719 -5.414062 4.695312 -5.246094 C 4.839844 -5.074219 4.980469 -4.941406 5.105469 -4.882812 C 5.445312 -4.703125 5.769531 -4.640625 6.148438 -4.703125 C 6.378906 -4.738281 6.671875 -4.863281 6.949219 -5.066406 C 7.585938 -5.480469 8.320312 -6.261719 9.066406 -7.4375 C 9.257812 -7.703125 9.46875 -8.085938 9.738281 -8.597656 C 9.980469 -9.027344 10.25 -9.539062 10.550781 -10.097656 C 10.972656 -10.867188 11.324219 -11.585938 11.675781 -12.308594 C 11.996094 -12.984375 12.164062 -13.402344 12.175781 -13.558594 C 12.164062 -13.636719 12.1875 -13.71875 12.175781 -13.792969 C 12.152344 -13.945312 12.046875 -14.125 11.90625 -14.257812 C 11.640625 -14.449219 11.394531 -14.527344 11.085938 -14.515625 C 10.78125 -14.464844 10.558594 -14.390625 10.457031 -14.296875 C 10.324219 -14.160156 10.144531 -13.816406 9.847656 -13.222656 C 8.683594 -10.769531 7.75 -9.058594 7.085938 -8.09375 C 6.390625 -7.082031 6.035156 -6.867188 5.941406 -7.441406 C 5.882812 -7.820312 5.878906 -8.5625 5.972656 -9.667969 C 6.078125 -10.703125 6.238281 -11.898438 6.484375 -13.265625 C 6.714844 -14.746094 6.800781 -15.660156 6.777344 -16.046875 C 6.753906 -16.433594 6.558594 -16.671875 6.140625 -16.839844 Z M 2.554688 -13.917969 C 2.59375 -13.925781 2.625 -13.96875 2.660156 -13.976562 L 2.777344 -13.992188 C 3.003906 -14.03125 3.023438 -13.917969 2.90625 -13.664062 C 2.761719 -13.367188 2.410156 -12.878906 1.886719 -12.25 C 1.167969 -11.390625 0.636719 -10.800781 0.300781 -10.472656 C -0.0703125 -10.097656 -0.253906 -10.03125 -0.277344 -10.183594 C -0.300781 -10.335938 -0.269531 -10.613281 -0.0898438 -10.953125 C 0.0898438 -11.296875 0.332031 -11.726562 0.714844 -12.253906 C 1.035156 -12.699219 1.328125 -13.058594 1.59375 -13.335938 C 1.875 -13.535156 2.191406 -13.742188 2.554688 -13.917969 Z M 2.554688 -13.917969 "/></g></g></g><g fill="#fe6d73" fill-opacity="1"><g transform="translate(128.801642, 90.841071)"><g><path d="M -2.070312 -3.882812 C -1.976562 -3.78125 -1.851562 -3.722656 -1.722656 -3.664062 C -1.597656 -3.605469 -1.519531 -3.617188 -1.445312 -3.632812 C -1.285156 -3.617188 -1.03125 -3.738281 -0.757812 -3.976562 C -0.515625 -4.171875 -0.382812 -4.542969 -0.347656 -5.058594 C -0.359375 -5.367188 -0.128906 -6.109375 0.308594 -7.273438 C 0.753906 -8.398438 1.226562 -9.566406 1.773438 -10.785156 C 2.113281 -11.582031 2.496094 -12.347656 2.847656 -13.070312 C 3.207031 -13.75 3.507812 -14.308594 3.753906 -14.699219 C 4.101562 -15.222656 4.308594 -15.375 4.339844 -15.183594 C 4.378906 -14.957031 4.273438 -14.15625 4.105469 -12.765625 C 3.933594 -11.410156 3.839844 -10.300781 3.835938 -9.363281 C 3.792969 -8.417969 3.867188 -7.730469 4.007812 -7.324219 C 4.109375 -6.949219 4.367188 -6.558594 4.808594 -6.242188 C 5.210938 -5.917969 5.554688 -5.738281 5.859375 -5.785156 C 6.464844 -5.882812 7.171875 -6.351562 8.042969 -7.234375 C 8.847656 -8.066406 9.808594 -9.351562 10.894531 -11.089844 C 11.261719 -11.734375 11.566406 -12.25 11.734375 -12.667969 C 11.90625 -13.046875 11.976562 -13.332031 11.953125 -13.484375 L 11.941406 -13.5625 C 11.878906 -13.941406 11.640625 -14.214844 11.273438 -14.3125 C 10.867188 -14.402344 10.53125 -14.308594 10.238281 -13.949219 C 10.136719 -13.855469 9.984375 -13.597656 9.765625 -13.25 C 9.519531 -12.855469 9.308594 -12.472656 9.058594 -12.082031 C 8.5 -11.171875 7.941406 -10.300781 7.289062 -9.492188 C 6.644531 -8.644531 6.246094 -8.230469 6.09375 -8.207031 C 5.902344 -8.175781 5.820312 -8.433594 5.84375 -9.023438 C 5.832031 -9.570312 5.953125 -10.757812 6.195312 -12.632812 C 6.371094 -14.457031 6.445312 -15.679688 6.414062 -16.375 C 6.339844 -17.066406 6.109375 -17.539062 5.703125 -17.863281 C 5.527344 -17.992188 5.355469 -18.078125 5.1875 -18.167969 C 4.984375 -18.214844 4.824219 -18.226562 4.671875 -18.203125 C 4.140625 -18.117188 3.511719 -17.664062 2.789062 -16.808594 C 2.078125 -15.910156 1.398438 -14.785156 0.683594 -13.421875 C 0.476562 -13 0.296875 -12.65625 0.144531 -12.398438 C -0.0390625 -12.09375 -0.136719 -11.960938 -0.136719 -11.960938 C -0.210938 -11.949219 -0.210938 -12.417969 -0.128906 -13.367188 C -0.0859375 -14.3125 0.0078125 -15.421875 0.152344 -16.695312 C 0.203125 -17.363281 0.28125 -18.082031 0.359375 -18.796875 C 0.445312 -19.472656 0.53125 -20.152344 0.625 -20.789062 C 0.691406 -21.347656 0.828125 -22.1875 1.003906 -23.273438 C 1.144531 -24.347656 1.332031 -25.355469 1.496094 -26.277344 C 1.652344 -27.242188 1.796875 -28.042969 1.875 -28.761719 C 1.953125 -29.476562 1.96875 -29.867188 1.953125 -29.984375 C 1.84375 -30.160156 1.660156 -30.328125 1.363281 -30.472656 C 1.125 -30.511719 0.921875 -30.558594 0.769531 -30.535156 C 0.691406 -30.519531 0.625 -30.472656 0.585938 -30.464844 C 0.371094 -30.351562 0.210938 -30.132812 0.105469 -29.800781 C 0.00390625 -29.472656 -0.199219 -28.542969 -0.457031 -27.015625 C -0.65625 -25.8125 -0.855469 -24.648438 -1.035156 -23.566406 C -1.203125 -22.445312 -1.347656 -21.410156 -1.492188 -20.371094 C -1.761719 -18.414062 -1.957031 -16.46875 -2.117188 -14.570312 C -2.269531 -12.59375 -2.390625 -10.464844 -2.480469 -8.109375 C -2.550781 -6.378906 -2.570312 -5.285156 -2.496094 -4.828125 L -2.472656 -4.675781 C -2.410156 -4.296875 -2.292969 -4.042969 -2.070312 -3.882812 Z M -2.070312 -3.882812 "/></g></g></g><g fill="#fe6d73" fill-opacity="1"><g transform="translate(140.784236, 88.906305)"><g/></g></g><g fill="#fe6d73" fill-opacity="1"><g transform="translate(151.283271, 87.211082)"><g><path d="M 1.074219 0.371094 C 1.554688 0.453125 2.03125 0.492188 2.5625 0.40625 C 3.589844 0.238281 4.726562 -0.21875 6 -1.046875 C 7.875 -2.246094 10.195312 -4.300781 12.972656 -7.167969 C 13.808594 -8.046875 14.675781 -8.964844 15.527344 -9.964844 C 16.394531 -10.882812 17.152344 -11.746094 17.738281 -12.46875 C 18.03125 -12.828125 18.289062 -13.179688 18.511719 -13.488281 C 18.703125 -13.753906 18.792969 -13.925781 18.851562 -14.050781 C 18.933594 -14.261719 18.980469 -14.464844 18.992188 -14.621094 C 18.992188 -14.621094 19.023438 -14.664062 19.011719 -14.742188 C 18.992188 -14.855469 18.890625 -14.996094 18.792969 -15.136719 C 18.464844 -15.472656 18.140625 -15.539062 17.8125 -15.40625 C 17.449219 -15.230469 16.976562 -14.765625 16.351562 -14.039062 C 15.179688 -12.601562 13.855469 -11.136719 12.421875 -9.617188 C 10.988281 -8.097656 9.644531 -6.75 8.390625 -5.570312 C 7.679688 -4.910156 7.023438 -4.375 6.398438 -3.882812 C 5.78125 -3.355469 5.261719 -2.957031 4.796875 -2.6875 C 4.019531 -2.171875 3.292969 -1.859375 2.53125 -1.734375 C 1.78125 -1.535156 1.269531 -1.570312 0.953125 -1.832031 C 0.253906 -2.304688 -0.0195312 -3.277344 0.0859375 -4.777344 C 0.171875 -6.195312 0.605469 -7.867188 1.429688 -9.753906 C 2.050781 -11.222656 2.964844 -12.816406 4.132812 -14.527344 C 5.308594 -16.199219 6.839844 -18.085938 8.675781 -20.253906 C 9.667969 -21.351562 10.25 -22.109375 10.453125 -22.535156 C 10.625 -22.914062 10.640625 -23.304688 10.429688 -23.660156 C 10.175781 -24.011719 9.847656 -24.113281 9.480469 -23.976562 C 9.074219 -23.832031 8.304688 -23.277344 7.160156 -22.390625 C 5.847656 -21.320312 4.800781 -20.566406 4.015625 -20.089844 C 3.199219 -19.605469 2.503906 -19.296875 1.972656 -19.210938 C 1.59375 -19.152344 1.363281 -19.113281 1.277344 -19.175781 C 1.160156 -19.160156 1.0625 -19.300781 1.023438 -19.527344 C 0.925781 -19.902344 1.035156 -20.425781 1.347656 -21.140625 C 1.664062 -21.855469 2.1875 -22.722656 2.886719 -23.691406 C 3.972656 -25.195312 5.121094 -26.550781 6.414062 -27.734375 C 7.628906 -28.910156 8.574219 -29.570312 9.222656 -29.671875 C 9.414062 -29.703125 9.570312 -29.691406 9.699219 -29.632812 C 9.824219 -29.574219 9.96875 -29.402344 10.15625 -29.199219 C 10.347656 -28.996094 10.484375 -28.863281 10.613281 -28.804688 C 10.738281 -28.746094 10.933594 -28.738281 11.164062 -28.777344 C 11.46875 -28.824219 11.722656 -28.945312 11.847656 -29.121094 C 11.984375 -29.261719 12.023438 -29.5 11.972656 -29.804688 C 11.925781 -30.109375 11.753906 -30.433594 11.546875 -30.75 C 11.308594 -31.023438 11 -31.25 10.644531 -31.503906 C 10.347656 -31.652344 10.101562 -31.726562 9.9375 -31.78125 C 9.824219 -31.761719 9.664062 -31.773438 9.472656 -31.742188 C 9.320312 -31.71875 9.136719 -31.652344 8.949219 -31.621094 C 8.007812 -31.390625 7 -30.875 5.929688 -30 C 4.824219 -29.121094 3.582031 -27.863281 2.242188 -26.242188 C 0.417969 -23.996094 -0.667969 -22.027344 -0.941406 -20.34375 C -1.253906 -18.652344 -0.726562 -17.566406 0.664062 -17.164062 C 0.992188 -17.0625 1.277344 -16.992188 1.503906 -17.027344 C 1.738281 -17.027344 2.121094 -17.089844 2.609375 -17.207031 L 3.730469 -17.503906 C 3.164062 -16.671875 2.71875 -16.054688 2.46875 -15.660156 C 0.105469 -12.15625 -1.335938 -8.996094 -1.804688 -6.109375 C -2.003906 -4.90625 -2.03125 -3.886719 -1.898438 -3.050781 C -1.6875 -1.757812 -1.136719 -0.753906 -0.175781 -0.128906 C 0 0 0.207031 0.0820312 0.457031 0.160156 C 0.671875 0.28125 0.878906 0.367188 1.074219 0.371094 Z M 1.074219 0.371094 "/></g></g></g><g fill="#fe6d73" fill-opacity="1"><g transform="translate(170.341303, 84.133883)"><g><path d="M 7.3125 -26.515625 C 7.164062 -27.429688 6.863281 -28.082031 6.449219 -28.484375 C 5.992188 -28.878906 5.460938 -29.027344 4.816406 -28.921875 C 4.28125 -28.835938 3.691406 -28.390625 3.042969 -27.582031 C 2.390625 -26.773438 1.777344 -25.738281 1.238281 -24.480469 C 0.917969 -23.804688 0.554688 -22.925781 0.191406 -21.773438 C -0.167969 -20.625 -0.527344 -19.472656 -0.851562 -18.328125 C -1.019531 -17.675781 -1.160156 -17.105469 -1.308594 -16.574219 C -1.453125 -16.003906 -1.53125 -15.523438 -1.621094 -15.117188 C -2.207031 -11.980469 -2.285156 -9.3125 -1.914062 -7.03125 C -1.585938 -4.742188 -0.855469 -3.375 0.320312 -2.863281 C 0.75 -2.617188 1.222656 -2.578125 1.753906 -2.664062 C 2.058594 -2.714844 2.394531 -2.808594 2.757812 -2.984375 C 3.710938 -3.371094 4.609375 -4.101562 5.527344 -5.1875 C 5.824219 -5.507812 6.144531 -5.949219 6.527344 -6.480469 C 6.878906 -6.964844 7.261719 -7.496094 7.636719 -8.066406 C 8.289062 -9.105469 8.863281 -10.136719 9.402344 -11.160156 C 9.902344 -12.175781 10.144531 -12.839844 10.097656 -13.144531 C 10.054688 -13.414062 9.941406 -13.628906 9.757812 -13.792969 C 9.535156 -13.953125 9.289062 -14.03125 9.0625 -13.992188 C 8.792969 -13.949219 8.585938 -13.800781 8.417969 -13.617188 C 8.226562 -13.351562 8.023438 -12.929688 7.765625 -12.339844 C 6.863281 -10.203125 5.746094 -8.421875 4.496094 -6.972656 C 3.214844 -5.476562 2.203125 -4.726562 1.5 -4.730469 C 1.191406 -4.71875 0.886719 -4.90625 0.660156 -5.335938 C 0.433594 -5.769531 0.261719 -6.367188 0.125 -7.203125 C -0.0585938 -8.34375 -0.136719 -9.074219 -0.078125 -9.433594 C -0.0507812 -9.75 0.164062 -10.097656 0.539062 -10.433594 C 0.679688 -10.53125 0.980469 -10.855469 1.363281 -11.382812 C 1.757812 -11.839844 2.179688 -12.375 2.554688 -12.941406 C 4.171875 -15.273438 5.410156 -17.738281 6.324219 -20.304688 C 7.238281 -22.871094 7.570312 -24.917969 7.3125 -26.515625 Z M 3.058594 -23.601562 C 3.375 -24.316406 3.730469 -25 4.164062 -25.695312 C 4.601562 -26.390625 4.855469 -26.742188 5.007812 -26.769531 C 5.121094 -26.785156 5.214844 -26.449219 5.273438 -25.835938 C 5.296875 -25.214844 5.277344 -24.625 5.210938 -24.066406 C 5.027344 -22.789062 4.566406 -21.269531 3.835938 -19.511719 C 3.105469 -17.753906 2.269531 -16.175781 1.359375 -14.78125 C 1.113281 -14.390625 0.851562 -14.074219 0.660156 -13.808594 C 0.472656 -13.503906 0.339844 -13.367188 0.300781 -13.359375 C 0.148438 -13.335938 0.179688 -13.886719 0.460938 -15.027344 C 0.671875 -16.152344 1.011719 -17.417969 1.414062 -18.808594 C 1.660156 -19.707031 1.949219 -20.574219 2.269531 -21.484375 C 2.566406 -22.3125 2.839844 -23.023438 3.058594 -23.601562 Z M 3.058594 -23.601562 "/></g></g></g><g fill="#fe6d73" fill-opacity="1"><g transform="translate(180.497978, 82.493938)"><g><path d="M -0.894531 -3.367188 C -0.390625 -3.136719 0.179688 -3.230469 0.828125 -3.570312 C 1.4375 -3.902344 2.121094 -4.519531 2.871094 -5.421875 C 3.164062 -5.78125 3.574219 -6.394531 4.097656 -7.257812 C 4.582031 -8.117188 5.070312 -8.976562 5.515625 -9.832031 C 5.816406 -10.386719 6.085938 -10.898438 6.324219 -11.367188 C 6.558594 -11.832031 6.703125 -12.167969 6.816406 -12.421875 C 6.867188 -12.585938 6.875 -12.78125 6.84375 -12.972656 C 6.8125 -13.164062 6.707031 -13.339844 6.519531 -13.542969 C 6.160156 -13.835938 5.796875 -13.894531 5.398438 -13.714844 C 5.328125 -13.664062 5.167969 -13.441406 4.925781 -13.011719 C 4.644531 -12.578125 4.375 -12.066406 4.074219 -11.511719 C 3.863281 -11.125 3.621094 -10.695312 3.378906 -10.265625 C 3.097656 -9.828125 2.824219 -9.355469 2.546875 -8.882812 C 1.984375 -8.011719 1.488281 -7.226562 0.976562 -6.519531 C 0.464844 -5.8125 0.171875 -5.453125 0.015625 -5.46875 C -0.0976562 -5.449219 -0.1875 -5.511719 -0.210938 -5.664062 C -0.269531 -5.773438 -0.3125 -6.039062 -0.347656 -6.503906 C -0.417969 -7.191406 -0.390625 -7.976562 -0.273438 -8.933594 C -0.191406 -9.882812 -0.0195312 -11.003906 0.265625 -12.378906 C 0.355469 -13.019531 0.429688 -13.535156 0.507812 -14.019531 C 0.554688 -14.453125 0.550781 -14.726562 0.523438 -14.878906 C 0.40625 -15.132812 0.21875 -15.335938 -0.0351562 -15.453125 L -0.277344 -15.492188 C -0.511719 -15.492188 -0.699219 -15.460938 -0.878906 -15.355469 C -1.019531 -15.253906 -1.152344 -15.117188 -1.269531 -14.863281 C -1.382812 -14.609375 -1.5 -14.125 -1.628906 -13.476562 C -2.265625 -10.40625 -2.511719 -8.066406 -2.40625 -6.441406 C -2.394531 -6.132812 -2.359375 -5.902344 -2.328125 -5.714844 C -2.125 -4.457031 -1.648438 -3.675781 -0.894531 -3.367188 Z M -0.324219 -17.242188 C -0.148438 -17.113281 0.0234375 -17.023438 0.21875 -17.015625 C 0.378906 -17.003906 0.5625 -17.070312 0.777344 -17.183594 C 1.171875 -17.402344 1.355469 -17.707031 1.296875 -18.085938 C 1.234375 -18.46875 1.039062 -18.710938 0.699219 -18.890625 C 0.363281 -19.03125 0.0585938 -18.980469 -0.222656 -18.78125 C -0.535156 -18.535156 -0.6875 -18.273438 -0.71875 -17.996094 C -0.746094 -17.679688 -0.589844 -17.433594 -0.324219 -17.242188 Z M -0.324219 -17.242188 "/></g></g></g><g fill="#fe6d73" fill-opacity="1"><g transform="translate(187.649495, 81.339221)"><g><path d="M 2.324219 -3.734375 C 2.566406 -3.691406 2.839844 -3.699219 3.140625 -3.746094 C 3.371094 -3.785156 3.597656 -3.820312 3.851562 -3.941406 C 4.410156 -4.109375 5.019531 -4.441406 5.6875 -4.898438 C 6.890625 -5.679688 8.164062 -6.742188 9.539062 -8.136719 C 10.875 -9.523438 12.09375 -10.929688 13.253906 -12.445312 C 13.835938 -13.203125 14.179688 -13.726562 14.332031 -13.984375 C 14.484375 -14.246094 14.558594 -14.53125 14.519531 -14.757812 C 14.5 -14.871094 14.4375 -15.019531 14.375 -15.164062 C 14.277344 -15.304688 14.226562 -15.375 14.136719 -15.4375 C 13.796875 -15.617188 13.492188 -15.566406 13.171875 -15.359375 C 12.816406 -15.148438 12.289062 -14.554688 11.582031 -13.621094 C 10.605469 -12.410156 9.625 -11.234375 8.636719 -10.097656 C 7.578125 -8.914062 6.636719 -7.980469 5.738281 -7.25 C 5.253906 -6.859375 4.804688 -6.515625 4.371094 -6.289062 C 3.941406 -6.0625 3.535156 -5.917969 3.230469 -5.871094 C 2.765625 -5.832031 2.476562 -5.941406 2.402344 -6.164062 C 2.324219 -6.386719 2.402344 -6.867188 2.636719 -7.609375 C 2.738281 -7.9375 2.816406 -8.183594 2.898438 -8.394531 C 2.953125 -8.558594 3.046875 -8.691406 3.148438 -8.785156 C 3.1875 -8.789062 3.300781 -8.808594 3.542969 -8.769531 C 3.75 -8.6875 3.914062 -8.632812 4.074219 -8.621094 C 4.359375 -8.550781 4.585938 -8.585938 4.800781 -8.699219 C 4.980469 -8.804688 5.109375 -8.984375 5.210938 -9.3125 C 5.261719 -9.476562 5.226562 -9.703125 5.152344 -9.925781 C 5.042969 -10.105469 4.867188 -10.234375 4.613281 -10.347656 C 4.328125 -10.417969 4.121094 -10.503906 3.996094 -10.558594 C 4.417969 -11.332031 4.753906 -11.894531 4.996094 -12.324219 C 5.382812 -13.085938 5.664062 -13.757812 5.882812 -14.339844 C 6.105469 -14.882812 6.199219 -15.289062 6.148438 -15.59375 C 6.097656 -15.898438 5.941406 -16.144531 5.664062 -16.410156 C 5.394531 -16.640625 5.058594 -16.78125 4.734375 -16.847656 C 4.496094 -16.886719 4.261719 -16.886719 4.03125 -16.851562 L 3.996094 -16.84375 C 3.765625 -16.808594 3.398438 -16.671875 2.960938 -16.484375 C 2.742188 -16.371094 2.417969 -16.199219 1.988281 -15.972656 C 1.5625 -15.710938 1.136719 -15.445312 0.679688 -15.136719 C -0.0273438 -14.671875 -0.65625 -14.21875 -1.285156 -13.765625 C -1.949219 -13.269531 -2.324219 -12.9375 -2.449219 -12.757812 C -2.640625 -12.496094 -2.679688 -12.253906 -2.644531 -12.027344 C -2.621094 -11.875 -2.601562 -11.757812 -2.542969 -11.652344 C -2.332031 -11.296875 -2.035156 -11.148438 -1.578125 -11.222656 C -1.5 -11.234375 -1.210938 -11.359375 -0.785156 -11.625 C -0.394531 -11.882812 0.0625 -12.1875 0.546875 -12.578125 C 1.382812 -13.183594 2.085938 -13.6875 2.578125 -14 C 3.082031 -14.277344 3.449219 -14.414062 3.609375 -14.402344 C 3.644531 -14.40625 3.59375 -14.242188 3.484375 -13.953125 C 3.34375 -13.617188 3.164062 -13.277344 2.921875 -12.847656 C 2.648438 -12.371094 2.4375 -11.988281 2.328125 -11.695312 C 2.1875 -11.359375 2.058594 -11.183594 1.949219 -11.128906 C 1.886719 -11.039062 1.730469 -11.054688 1.519531 -11.136719 C 1.316406 -11.183594 1.152344 -11.234375 1.039062 -11.214844 C 0.960938 -11.203125 0.855469 -11.144531 0.742188 -11.128906 C 0.59375 -11.066406 0.46875 -10.886719 0.390625 -10.640625 C 0.3125 -10.394531 0.300781 -10.238281 0.355469 -10.128906 C 0.417969 -9.984375 0.472656 -9.875 0.519531 -9.84375 C 0.621094 -9.703125 0.746094 -9.644531 0.9375 -9.675781 C 1.101562 -9.625 1.152344 -9.554688 1.164062 -9.476562 C 1.144531 -9.359375 1.058594 -9.148438 0.914062 -8.851562 C 0.734375 -8.511719 0.664062 -8.226562 0.617188 -8.023438 C 0.480469 -7.652344 0.378906 -7.320312 0.277344 -6.992188 C 0.179688 -6.625 0.121094 -6.265625 0.183594 -5.886719 C 0.230469 -5.347656 0.324219 -5.011719 0.460938 -4.875 C 0.605469 -4.703125 0.796875 -4.5 1.0625 -4.308594 C 1.238281 -4.179688 1.410156 -4.09375 1.660156 -3.976562 C 1.914062 -3.863281 2.121094 -3.777344 2.324219 -3.734375 Z M 2.324219 -3.734375 "/></g></g></g><g fill="#fe6d73" fill-opacity="1"><g transform="translate(202.789408, 78.89466)"><g><path d="M 6.140625 -16.839844 C 6.023438 -16.859375 5.941406 -16.886719 5.855469 -16.910156 C 5.742188 -16.894531 5.621094 -16.914062 5.546875 -16.902344 C 5.394531 -16.875 5.285156 -16.820312 5.148438 -16.71875 C 5.007812 -16.617188 4.828125 -16.511719 4.703125 -16.335938 C 4.511719 -16.070312 4.332031 -15.960938 4.257812 -15.949219 C 4.148438 -15.894531 3.914062 -15.894531 3.546875 -15.992188 C 2.75 -16.097656 1.949219 -15.96875 1.238281 -15.542969 C 0.449219 -15.101562 -0.257812 -14.402344 -0.957031 -13.429688 C -1.46875 -12.722656 -1.828125 -12.039062 -2.097656 -11.292969 C -2.40625 -10.542969 -2.527344 -9.859375 -2.480469 -9.320312 C -2.480469 -9.085938 -2.457031 -8.933594 -2.4375 -8.820312 C -2.414062 -8.667969 -2.402344 -8.589844 -2.351562 -8.519531 C -2.289062 -8.375 -2.101562 -8.171875 -1.753906 -7.953125 C -1.570312 -7.789062 -1.355469 -7.667969 -1.152344 -7.621094 C -0.980469 -7.53125 -0.824219 -7.519531 -0.671875 -7.542969 C -0.214844 -7.617188 0.363281 -7.90625 1.019531 -8.441406 C 1.679688 -8.9375 2.386719 -9.636719 3.140625 -10.539062 C 3.332031 -10.804688 3.527344 -11.03125 3.730469 -11.21875 C 3.898438 -11.402344 4 -11.496094 4.035156 -11.503906 C 4.042969 -11.464844 4.03125 -11.308594 4.027344 -11.074219 C 3.996094 -10.792969 3.96875 -10.476562 3.941406 -10.160156 C 3.847656 -9.289062 3.871094 -8.433594 3.929688 -7.582031 C 3.992188 -6.695312 4.128906 -6.09375 4.34375 -5.738281 C 4.40625 -5.589844 4.511719 -5.414062 4.695312 -5.246094 C 4.839844 -5.074219 4.980469 -4.941406 5.105469 -4.882812 C 5.445312 -4.703125 5.769531 -4.640625 6.148438 -4.703125 C 6.378906 -4.738281 6.671875 -4.863281 6.949219 -5.066406 C 7.585938 -5.480469 8.320312 -6.261719 9.066406 -7.4375 C 9.257812 -7.703125 9.46875 -8.085938 9.738281 -8.597656 C 9.980469 -9.027344 10.25 -9.539062 10.550781 -10.097656 C 10.972656 -10.867188 11.324219 -11.585938 11.675781 -12.308594 C 11.996094 -12.984375 12.164062 -13.402344 12.175781 -13.558594 C 12.164062 -13.636719 12.1875 -13.71875 12.175781 -13.792969 C 12.152344 -13.945312 12.046875 -14.125 11.90625 -14.257812 C 11.640625 -14.449219 11.394531 -14.527344 11.085938 -14.515625 C 10.78125 -14.464844 10.558594 -14.390625 10.457031 -14.296875 C 10.324219 -14.160156 10.144531 -13.816406 9.847656 -13.222656 C 8.683594 -10.769531 7.75 -9.058594 7.085938 -8.09375 C 6.390625 -7.082031 6.035156 -6.867188 5.941406 -7.441406 C 5.882812 -7.820312 5.878906 -8.5625 5.972656 -9.667969 C 6.078125 -10.703125 6.238281 -11.898438 6.484375 -13.265625 C 6.714844 -14.746094 6.800781 -15.660156 6.777344 -16.046875 C 6.753906 -16.433594 6.558594 -16.671875 6.140625 -16.839844 Z M 2.554688 -13.917969 C 2.59375 -13.925781 2.625 -13.96875 2.660156 -13.976562 L 2.777344 -13.992188 C 3.003906 -14.03125 3.023438 -13.917969 2.90625 -13.664062 C 2.761719 -13.367188 2.410156 -12.878906 1.886719 -12.25 C 1.167969 -11.390625 0.636719 -10.800781 0.300781 -10.472656 C -0.0703125 -10.097656 -0.253906 -10.03125 -0.277344 -10.183594 C -0.300781 -10.335938 -0.269531 -10.613281 -0.0898438 -10.953125 C 0.0898438 -11.296875 0.332031 -11.726562 0.714844 -12.253906 C 1.035156 -12.699219 1.328125 -13.058594 1.59375 -13.335938 C 1.875 -13.535156 2.191406 -13.742188 2.554688 -13.917969 Z M 2.554688 -13.917969 "/></g></g></g><g fill="#fe6d73" fill-opacity="1"><g transform="translate(215.000242, 76.923042)"><g><path d="M -1.734375 -0.34375 C -1.644531 -0.28125 -1.519531 -0.222656 -1.359375 -0.210938 C -1.277344 -0.183594 -1.164062 -0.203125 -1.011719 -0.226562 L -0.9375 -0.238281 C -0.671875 -0.28125 -0.464844 -0.472656 -0.355469 -0.761719 C -0.242188 -1.015625 -0.1875 -1.414062 -0.210938 -2.035156 C -0.222656 -2.578125 -0.0625 -3.542969 0.273438 -4.84375 C 0.570312 -6.144531 0.925781 -7.332031 1.324219 -8.488281 C 1.855469 -10.019531 2.566406 -11.421875 3.378906 -12.6875 C 4.195312 -13.910156 4.824219 -14.597656 5.347656 -14.761719 C 5.800781 -14.832031 6.078125 -14.566406 6.261719 -13.933594 C 6.410156 -13.253906 6.386719 -12.429688 6.164062 -11.378906 C 5.894531 -10.164062 5.464844 -9.195312 4.890625 -8.402344 C 4.320312 -7.566406 3.632812 -6.988281 2.820312 -6.703125 C 2.277344 -6.457031 1.917969 -6.242188 1.753906 -6.0625 C 1.550781 -5.871094 1.515625 -5.59375 1.605469 -5.292969 C 1.664062 -4.914062 1.859375 -4.671875 2.109375 -4.59375 C 2.359375 -4.480469 2.785156 -4.507812 3.34375 -4.675781 C 4.207031 -4.894531 5.050781 -5.460938 5.847656 -6.332031 C 6.644531 -7.203125 7.25 -8.277344 7.746094 -9.566406 C 8.351562 -11.144531 8.585938 -12.589844 8.375 -13.882812 C 8.316406 -14.261719 8.214844 -14.636719 8.078125 -15.007812 C 7.445312 -16.503906 6.414062 -17.078125 4.988281 -16.730469 C 4.761719 -16.695312 4.507812 -16.578125 4.253906 -16.457031 C 3.960938 -16.332031 3.710938 -16.175781 3.574219 -16.074219 C 3.160156 -15.734375 2.695312 -15.230469 2.171875 -14.597656 C 1.621094 -13.886719 1.246094 -13.316406 1.015625 -12.8125 C 0.894531 -12.597656 0.804688 -12.425781 0.746094 -12.300781 C 0.617188 -12.125 0.550781 -12.074219 0.542969 -12.109375 C 0.464844 -12.097656 0.550781 -12.777344 0.8125 -14.066406 C 0.996094 -15.347656 1.300781 -16.839844 1.644531 -18.574219 C 1.816406 -19.460938 2.011719 -20.429688 2.242188 -21.402344 C 2.4375 -22.371094 2.644531 -23.261719 2.851562 -24.15625 C 3.113281 -25.445312 3.359375 -26.578125 3.546875 -27.585938 C 3.707031 -28.546875 3.808594 -29.113281 3.796875 -29.1875 C 3.726562 -29.371094 3.578125 -29.582031 3.3125 -29.773438 C 3.054688 -29.925781 2.882812 -30.015625 2.730469 -29.992188 L 2.691406 -29.984375 C 2.394531 -29.898438 2.101562 -29.539062 1.894531 -28.878906 C 1.652344 -28.214844 1.300781 -26.753906 0.800781 -24.527344 C 0.148438 -21.570312 -0.378906 -19.027344 -0.78125 -16.933594 C -1.210938 -14.753906 -1.488281 -12.835938 -1.6875 -11.164062 C -1.851562 -9.773438 -2.015625 -8.378906 -2.105469 -7 C -2.1875 -5.578125 -2.265625 -4.359375 -2.296875 -3.335938 C -2.285156 -2.792969 -2.28125 -2.285156 -2.257812 -1.898438 C -2.285156 -1.582031 -2.25 -1.355469 -2.222656 -1.203125 L -2.199219 -1.050781 C -2.175781 -0.898438 -2.113281 -0.753906 -2.011719 -0.613281 C -1.910156 -0.472656 -1.816406 -0.371094 -1.734375 -0.34375 Z M -1.734375 -0.34375 "/></g></g></g><g fill="#fe6d73" fill-opacity="1"><g transform="translate(225.917718, 75.160255)"><g><path d="M 2.671875 -16.085938 L 2.355469 -16.113281 L 2.050781 -16.0625 L 2.015625 -16.058594 C 0.953125 -15.847656 -0.078125 -14.976562 -0.996094 -13.421875 C -1.953125 -11.863281 -2.46875 -10.21875 -2.535156 -8.453125 C -2.539062 -7.984375 -2.503906 -7.519531 -2.441406 -7.140625 C -2.324219 -6.417969 -2.105469 -5.789062 -1.714844 -5.304688 C -1.15625 -4.496094 -0.378906 -4.039062 0.648438 -3.96875 C 0.925781 -3.9375 1.199219 -3.941406 1.503906 -3.988281 C 2.492188 -4.148438 3.648438 -4.726562 4.972656 -5.722656 C 6.644531 -6.96875 8.304688 -8.757812 9.964844 -11.054688 C 10.578125 -11.855469 10.953125 -12.425781 11.140625 -12.730469 C 11.292969 -12.988281 11.363281 -13.273438 11.328125 -13.5 C 11.277344 -13.804688 11.121094 -14.054688 10.855469 -14.246094 C 10.558594 -14.390625 10.28125 -14.425781 10.0625 -14.3125 C 9.992188 -14.261719 9.796875 -14.035156 9.464844 -13.667969 C 9.140625 -13.265625 8.78125 -12.816406 8.398438 -12.285156 C 7.046875 -10.507812 5.792969 -9.09375 4.628906 -8.085938 C 3.46875 -7.039062 2.433594 -6.445312 1.53125 -6.21875 C 1.160156 -6.121094 0.855469 -6.070312 0.652344 -6.117188 C 0.421875 -6.078125 0.214844 -6.164062 0.113281 -6.304688 C -0.0625 -6.429688 -0.214844 -6.640625 -0.339844 -6.933594 C -0.453125 -7.148438 -0.5 -7.453125 -0.441406 -7.8125 C 0.195312 -8.230469 0.644531 -8.574219 0.957031 -8.820312 C 2.152344 -9.636719 3.019531 -10.558594 3.5625 -11.542969 C 4.113281 -12.492188 4.351562 -13.429688 4.199219 -14.378906 C 4.117188 -14.875 3.9375 -15.273438 3.695312 -15.546875 C 3.417969 -15.816406 3.078125 -15.996094 2.671875 -16.085938 Z M 0.28125 -11.5625 C 0.460938 -11.902344 0.734375 -12.375 1.179688 -12.996094 C 1.632812 -13.574219 1.894531 -13.890625 2.046875 -13.914062 C 2.390625 -13.96875 2.335938 -13.570312 1.921875 -12.761719 C 1.511719 -11.914062 1.019531 -11.328125 0.53125 -10.976562 C 0.21875 -10.730469 0.0351562 -10.664062 0.0234375 -10.738281 C 0.0117188 -10.816406 0.0859375 -11.0625 0.28125 -11.5625 Z M 0.28125 -11.5625 "/></g></g></g><g fill="#fe6d73" fill-opacity="1"><g transform="translate(237.595992, 73.274626)"><g><path d="M 0.429688 -1.203125 L 0.847656 -1.269531 C 1.535156 -1.378906 2.1875 -1.679688 2.882812 -2.222656 C 3.683594 -2.820312 4.636719 -3.910156 5.722656 -5.414062 C 6.425781 -6.386719 7.191406 -7.445312 7.96875 -8.664062 C 8.71875 -9.839844 9.332031 -10.875 9.808594 -11.773438 C 10.046875 -12.238281 10.25 -12.664062 10.394531 -13 C 10.535156 -13.332031 10.617188 -13.542969 10.597656 -13.65625 C 10.5625 -13.882812 10.410156 -14.09375 10.183594 -14.292969 C 9.925781 -14.445312 9.679688 -14.523438 9.410156 -14.480469 C 9.183594 -14.441406 8.980469 -14.253906 8.792969 -13.949219 C 8.539062 -13.597656 8.136719 -12.945312 7.523438 -11.910156 C 6.125 -9.460938 4.777344 -7.40625 3.40625 -5.742188 C 2.003906 -4.03125 1.074219 -3.257812 0.585938 -3.375 C 0.429688 -3.386719 0.296875 -3.484375 0.257812 -3.710938 C 0.230469 -3.902344 0.148438 -4.394531 0.0625 -5.164062 C -0.0234375 -5.695312 -0.03125 -6.242188 -0.015625 -6.867188 C -0.0390625 -7.488281 -0.0117188 -8.039062 0.0546875 -8.597656 C 0.117188 -9.425781 0.308594 -10.667969 0.625 -12.320312 C 0.914062 -13.925781 1.238281 -15.542969 1.539062 -17.074219 C 1.71875 -17.882812 1.867188 -18.648438 2.023438 -19.375 C 2.148438 -20.058594 2.289062 -20.628906 2.417969 -21.039062 C 2.660156 -21.976562 2.8125 -22.703125 2.96875 -23.199219 C 3.265625 -23.285156 3.527344 -23.367188 3.671875 -23.429688 C 3.863281 -23.460938 4.199219 -23.554688 4.726562 -23.675781 C 5.21875 -23.757812 5.707031 -23.875 6.242188 -23.960938 C 7.269531 -24.128906 7.949219 -24.277344 8.265625 -24.484375 C 8.589844 -24.652344 8.738281 -24.949219 8.675781 -25.328125 C 8.601562 -25.785156 8.367188 -26.023438 8.039062 -26.125 C 7.714844 -26.191406 6.941406 -26.144531 5.800781 -25.960938 L 3.632812 -25.609375 L 3.691406 -25.96875 L 3.828125 -26.578125 L 4.085938 -27.398438 C 4.15625 -27.683594 4.226562 -27.96875 4.300781 -28.253906 C 4.332031 -28.53125 4.378906 -28.734375 4.359375 -28.847656 C 4.308594 -29.152344 4.160156 -29.363281 3.945312 -29.484375 C 3.730469 -29.605469 3.488281 -29.644531 3.261719 -29.609375 L 3.148438 -29.589844 C 2.886719 -29.507812 2.714844 -29.363281 2.59375 -29.148438 C 2.476562 -28.898438 2.273438 -28.238281 1.960938 -27.253906 C 1.707031 -26.429688 1.523438 -25.855469 1.382812 -25.519531 C 1.210938 -25.140625 1.089844 -24.925781 0.976562 -24.90625 C 0.859375 -24.886719 0.601562 -24.808594 0.234375 -24.667969 C -0.171875 -24.527344 -0.617188 -24.375 -1.0625 -24.226562 C -2.171875 -23.851562 -2.910156 -23.578125 -3.269531 -23.402344 C -3.664062 -23.179688 -3.894531 -22.910156 -4.003906 -22.621094 C -4.125 -22.40625 -4.136719 -22.246094 -4.089844 -22.175781 C -4.070312 -22.0625 -4.007812 -21.914062 -3.824219 -21.75 C -3.636719 -21.546875 -3.503906 -21.449219 -3.382812 -21.429688 C -3.261719 -21.410156 -2.996094 -21.453125 -2.621094 -21.554688 C -2.394531 -21.589844 -2.0625 -21.722656 -1.695312 -21.859375 C -1.320312 -21.960938 -0.984375 -22.054688 -0.691406 -22.179688 C -0.394531 -22.265625 -0.0976562 -22.351562 0.125 -22.425781 C 0.355469 -22.464844 0.46875 -22.484375 0.507812 -22.488281 C 0.511719 -22.449219 0.503906 -22.253906 0.453125 -21.855469 C 0.363281 -21.449219 0.285156 -20.96875 0.140625 -20.398438 C -0.296875 -18.765625 -0.675781 -16.988281 -1.015625 -14.980469 C -1.386719 -12.929688 -1.628906 -11.058594 -1.828125 -9.386719 C -1.945312 -8.429688 -2.007812 -7.601562 -2.042969 -6.851562 C -2.109375 -6.0625 -2.132812 -5.472656 -2.097656 -5.007812 C -2.09375 -4.738281 -2.050781 -4.46875 -2.011719 -4.242188 C -1.9375 -3.785156 -1.828125 -3.335938 -1.652344 -2.972656 C -1.402344 -2.390625 -1.09375 -1.929688 -0.699219 -1.683594 C -0.519531 -1.515625 -0.339844 -1.390625 -0.101562 -1.351562 C 0.113281 -1.230469 0.277344 -1.175781 0.429688 -1.203125 Z M 0.429688 -1.203125 "/></g></g></g><g fill="#fe6d73" fill-opacity="1"><g transform="translate(248.513467, 71.51184)"><g><path d="M -2.070312 -3.882812 C -1.976562 -3.78125 -1.851562 -3.722656 -1.722656 -3.664062 C -1.597656 -3.605469 -1.519531 -3.617188 -1.445312 -3.632812 C -1.285156 -3.617188 -1.03125 -3.738281 -0.757812 -3.976562 C -0.515625 -4.171875 -0.382812 -4.542969 -0.347656 -5.058594 C -0.359375 -5.367188 -0.128906 -6.109375 0.308594 -7.273438 C 0.753906 -8.398438 1.226562 -9.566406 1.773438 -10.785156 C 2.113281 -11.582031 2.496094 -12.347656 2.847656 -13.070312 C 3.207031 -13.75 3.507812 -14.308594 3.753906 -14.699219 C 4.101562 -15.222656 4.308594 -15.375 4.339844 -15.183594 C 4.378906 -14.957031 4.273438 -14.15625 4.105469 -12.765625 C 3.933594 -11.410156 3.839844 -10.300781 3.835938 -9.363281 C 3.792969 -8.417969 3.867188 -7.730469 4.007812 -7.324219 C 4.109375 -6.949219 4.367188 -6.558594 4.808594 -6.242188 C 5.210938 -5.917969 5.554688 -5.738281 5.859375 -5.785156 C 6.464844 -5.882812 7.171875 -6.351562 8.042969 -7.234375 C 8.847656 -8.066406 9.808594 -9.351562 10.894531 -11.089844 C 11.261719 -11.734375 11.566406 -12.25 11.734375 -12.667969 C 11.90625 -13.046875 11.976562 -13.332031 11.953125 -13.484375 L 11.941406 -13.5625 C 11.878906 -13.941406 11.640625 -14.214844 11.273438 -14.3125 C 10.867188 -14.402344 10.53125 -14.308594 10.238281 -13.949219 C 10.136719 -13.855469 9.984375 -13.597656 9.765625 -13.25 C 9.519531 -12.855469 9.308594 -12.472656 9.058594 -12.082031 C 8.5 -11.171875 7.941406 -10.300781 7.289062 -9.492188 C 6.644531 -8.644531 6.246094 -8.230469 6.09375 -8.207031 C 5.902344 -8.175781 5.820312 -8.433594 5.84375 -9.023438 C 5.832031 -9.570312 5.953125 -10.757812 6.195312 -12.632812 C 6.371094 -14.457031 6.445312 -15.679688 6.414062 -16.375 C 6.339844 -17.066406 6.109375 -17.539062 5.703125 -17.863281 C 5.527344 -17.992188 5.355469 -18.078125 5.1875 -18.167969 C 4.984375 -18.214844 4.824219 -18.226562 4.671875 -18.203125 C 4.140625 -18.117188 3.511719 -17.664062 2.789062 -16.808594 C 2.078125 -15.910156 1.398438 -14.785156 0.683594 -13.421875 C 0.476562 -13 0.296875 -12.65625 0.144531 -12.398438 C -0.0390625 -12.09375 -0.136719 -11.960938 -0.136719 -11.960938 C -0.210938 -11.949219 -0.210938 -12.417969 -0.128906 -13.367188 C -0.0859375 -14.3125 0.0078125 -15.421875 0.152344 -16.695312 C 0.203125 -17.363281 0.28125 -18.082031 0.359375 -18.796875 C 0.445312 -19.472656 0.53125 -20.152344 0.625 -20.789062 C 0.691406 -21.347656 0.828125 -22.1875 1.003906 -23.273438 C 1.144531 -24.347656 1.332031 -25.355469 1.496094 -26.277344 C 1.652344 -27.242188 1.796875 -28.042969 1.875 -28.761719 C 1.953125 -29.476562 1.96875 -29.867188 1.953125 -29.984375 C 1.84375 -30.160156 1.660156 -30.328125 1.363281 -30.472656 C 1.125 -30.511719 0.921875 -30.558594 0.769531 -30.535156 C 0.691406 -30.519531 0.625 -30.472656 0.585938 -30.464844 C 0.371094 -30.351562 0.210938 -30.132812 0.105469 -29.800781 C 0.00390625 -29.472656 -0.199219 -28.542969 -0.457031 -27.015625 C -0.65625 -25.8125 -0.855469 -24.648438 -1.035156 -23.566406 C -1.203125 -22.445312 -1.347656 -21.410156 -1.492188 -20.371094 C -1.761719 -18.414062 -1.957031 -16.46875 -2.117188 -14.570312 C -2.269531 -12.59375 -2.390625 -10.464844 -2.480469 -8.109375 C -2.550781 -6.378906 -2.570312 -5.285156 -2.496094 -4.828125 L -2.472656 -4.675781 C -2.410156 -4.296875 -2.292969 -4.042969 -2.070312 -3.882812 Z M -2.070312 -3.882812 "/></g></g></g><g fill="#fe6d73" fill-opacity="1"><g transform="translate(260.496898, 69.576939)"><g/></g></g></svg>